<svg width="56" height="43" xmlns="http://www.w3.org/2000/svg"><path d="M40 38h13v1.5c0 .9-.52 1.5-1.3 1.5H41.3c-.78 0-1.3-.6-1.3-1.5V38zm-19 3h5v-8h-5v8zm1.5-15a1.5 1.5 0 1 0 .001 3.001A1.5 1.5 0 0 0 22.5 26zM3 25h35v5H4.25C3.5 30 3 29.5 3 28.75V25zm37 11h13V21H40v15zm1.3-21h10.4c.78 0 1.3.6 1.3 1.5V18H40v-1.5c0-.9.52-1.5 1.3-1.5zM4.25 2h37.5C42.5 2 43 2.525 43 3.313V12.5h-1.25c-2.125 0-3.75 1.706-3.75 3.938V23H3V3.312C3 2.526 3.5 2 4.25 2zm-.432-2C1.655 0 0 1.644 0 3.794v25.294c0 2.15 1.655 3.794 3.818 3.794h14v7.589h-7c-.763 0-1.273.505-1.273 1.264 0 .76.51 1.265 1.273 1.265H35c.764 0 1.273-.506 1.273-1.265 0-.759-.51-1.264-1.273-1.264h-7v-7.589h10.182v6.324C38.182 41.356 39.836 43 42 43h10.182C54.345 43 56 41.356 56 39.206V16.44c0-2.15-1.655-3.794-3.818-3.794h-6.364V3.794C45.818 1.644 44.164 0 42 0H3.818z" fill="#00387A" fill-rule="evenodd"/></svg>