<?xml version="1.0" standalone="no"?>
<!DOCTYPE svg PUBLIC "-//W3C//DTD SVG 20010904//EN"
 "http://www.w3.org/TR/2001/REC-SVG-20010904/DTD/svg10.dtd">
<svg version="1.0" xmlns="http://www.w3.org/2000/svg"
 width="300.000000pt" height="300.000000pt" viewBox="0 0 300.000000 300.000000"
 preserveAspectRatio="xMidYMid meet">
<metadata>
Created by potrace 1.10, written by Peter Selinger 2001-2011
</metadata>
<g transform="translate(0.000000,300.000000) scale(0.050000,-0.050000)"
fill="#00478c" stroke="none">
<path d="M3900 5710 c-57 -61 -61 -154 -8 -219 21 -26 106 -125 188 -220 1123
-1298 1123 -3244 0 -4542 -224 -258 -227 -263 -227 -328 0 -197 190 -215 363
-36 1103 1144 1366 2929 641 4357 -183 363 -380 643 -641 913 -141 146 -229
167 -316 75z"/>
<path d="M2866 5195 c-91 -102 -75 -166 86 -340 951 -1028 951 -2682 0 -3710
-161 -174 -177 -238 -86 -340 114 -126 279 -12 569 391 769 1069 769 2539 0
3608 -290 403 -455 517 -569 391z"/>
<path d="M1823 4674 c-82 -88 -60 -173 85 -337 675 -760 674 -1928 -3 -2679
-258 -287 -42 -554 221 -273 835 892 839 2331 9 3220 -126 135 -228 157 -312
69z"/>
<path d="M870 4204 c-159 -32 -174 -192 -32 -354 424 -484 424 -1216 0 -1700
-115 -132 -132 -231 -53 -305 106 -98 205 -63 355 127 479 603 480 1452 2
2054 -118 148 -190 195 -272 178z"/>
</g>
</svg>
