<svg id="Layer_1" data-name="Layer 1" xmlns="http://www.w3.org/2000/svg" viewBox="0 0 54 48"><defs><style>.cls-1{fill:none;stroke:#00478c;stroke-miterlimit:10;stroke-width:1.5px;}</style></defs><title>FNB-icon-points</title><polyline class="cls-1" points="29.63 27.98 22.22 46.02 18.25 42.05 12.64 42.06 19.44 25.63"/><polyline class="cls-1" points="34.39 25.3 41.36 42.14 35.75 42.13 31.78 46.1 26.98 34.52"/><polygon class="cls-1" points="27.11 1.89 29.45 4 32.46 3.07 33.74 5.95 36.87 6.33 36.87 9.48 39.57 11.1 38.28 13.98 40.09 16.56 37.75 18.66 38.35 21.75 35.36 22.72 34.65 25.79 31.52 25.46 29.63 27.98 26.9 26.4 24.15 27.93 22.3 25.38 19.16 25.66 18.51 22.57 15.53 21.55 16.19 18.47 13.88 16.33 15.74 13.78 14.5 10.88 17.23 9.31 17.28 6.16 20.42 5.83 21.75 2.98 24.74 3.96 27.11 1.89"/><circle class="cls-1" cx="27" cy="15.1" r="8.65"/></svg>