<svg id="Layer_1" data-name="Layer 1" xmlns="http://www.w3.org/2000/svg" viewBox="0 0 54 48"><defs><style>.cls-1{fill:none;stroke:#00478c;stroke-miterlimit:10;stroke-width:1.5px;}</style></defs><title>FNB-icon-taxes</title><path class="cls-1" d="M18.61,16.65v-2a8.39,8.39,0,0,1,16.78,0v2"/><line class="cls-1" x1="15" y1="16.65" x2="39.32" y2="16.65"/><line class="cls-1" x1="12.51" y1="23" x2="41.81" y2="23"/><rect class="cls-1" x="9.87" y="30.65" width="34.58" height="14.98"/><polyline class="cls-1" points="44.45 33.47 48.81 33.47 48.81 45.63 44.45 45.63"/><polyline class="cls-1" points="9.87 45.63 5.51 45.63 5.51 33.47 9.87 33.47"/><line class="cls-1" x1="16.74" y1="23" x2="16.74" y2="16.65"/><line class="cls-1" x1="37.58" y1="23" x2="37.58" y2="16.65"/><line class="cls-1" x1="14.87" y1="30.65" x2="14.87" y2="23"/><line class="cls-1" x1="39.45" y1="30.65" x2="39.45" y2="23"/><line class="cls-1" x1="27.16" y1="21.28" x2="27.16" y2="18.37"/><line class="cls-1" x1="23.58" y1="21.28" x2="23.58" y2="18.37"/><line class="cls-1" x1="20" y1="21.28" x2="20" y2="18.37"/><line class="cls-1" x1="34.32" y1="21.28" x2="34.32" y2="18.37"/><line class="cls-1" x1="30.74" y1="21.28" x2="30.74" y2="18.37"/><line class="cls-1" x1="27" y1="6.24" x2="27" y2="1.41"/><line class="cls-1" x1="28.95" y1="29.12" x2="28.95" y2="24.99"/><line class="cls-1" x1="25.37" y1="29.12" x2="25.37" y2="24.99"/><line class="cls-1" x1="21.79" y1="29.12" x2="21.79" y2="24.99"/><line class="cls-1" x1="18.21" y1="29.12" x2="18.21" y2="24.99"/><line class="cls-1" x1="36.11" y1="29.12" x2="36.11" y2="24.99"/><line class="cls-1" x1="32.53" y1="29.12" x2="32.53" y2="24.99"/><line class="cls-1" x1="39.45" y1="42.94" x2="39.45" y2="33.93"/><line class="cls-1" x1="34.56" y1="42.94" x2="34.56" y2="33.93"/><line class="cls-1" x1="29.66" y1="42.94" x2="29.66" y2="33.93"/><line class="cls-1" x1="24.76" y1="42.94" x2="24.76" y2="33.93"/><line class="cls-1" x1="19.86" y1="42.94" x2="19.86" y2="33.93"/><line class="cls-1" x1="14.97" y1="42.94" x2="14.97" y2="33.93"/></svg>