<svg id="Layer_1" data-name="Layer 1" xmlns="http://www.w3.org/2000/svg" viewBox="0 0 54 48"><defs><style>.cls-1{fill:none;stroke:#00478c;stroke-miterlimit:10;stroke-width:1.5px;}</style></defs><title>FNB-icon-gift</title><rect class="cls-1" x="23.2" y="16.74" width="7.6" height="27.73"/><polyline class="cls-1" points="23.2 24.35 6.87 24.35 6.87 16.74 47.13 16.74 47.13 24.35 30.8 24.35"/><polyline class="cls-1" points="45.16 24.35 45.16 44.48 8.84 44.48 8.84 24.35"/><path class="cls-1" d="M27,16.74S28.72,5.85,38.9,5.85a3.88,3.88,0,0,1,4,4C42.91,14.68,35.87,16.74,27,16.74Z"/><path class="cls-1" d="M27,16.74S25.62,8,17.43,8a3.12,3.12,0,0,0-3.23,3.25C14.2,15.09,19.87,16.74,27,16.74Z"/></svg>