<?xml version="1.0" encoding="utf-8"?>
<!-- Generator: Adobe Illustrator 23.0.3, SVG Export Plug-In . SVG Version: 6.00 Build 0)  -->
<svg version="1.1" id="Layer_1" xmlns="http://www.w3.org/2000/svg" xmlns:xlink="http://www.w3.org/1999/xlink" x="0px" y="0px"
	 viewBox="0 0 54 48" style="enable-background:new 0 0 54 48;" xml:space="preserve">
<style type="text/css">
	.st0{fill:none;stroke:#000000;stroke-width:1.5;stroke-miterlimit:10;}
	.st1{fill-rule:evenodd;clip-rule:evenodd;}
	.st2{clip-path:url(#SVGID_2_);}
	.st3{fill:none;stroke:#00478C;stroke-width:1.5;stroke-miterlimit:10;}
	.st4{clip-path:url(#SVGID_4_);fill:#A80D32;}
	.st5{fill:#FFFFFF;stroke:#000000;stroke-width:1.5;stroke-miterlimit:10;}
	.st6{fill-rule:evenodd;clip-rule:evenodd;fill:#FFFFFF;}
	.st7{fill:#00478C;}
	.st8{clip-path:url(#SVGID_8_);fill:#A80D32;}
	.st9{fill:url(#SVGID_11_);}
	.st10{fill:url(#SVGID_12_);}
	.st11{fill:url(#SVGID_13_);}
	.st12{fill:url(#SVGID_14_);}
	.st13{fill:url(#SVGID_15_);}
	.st14{fill:url(#SVGID_16_);}
	.st15{fill:none;stroke:#FFFFFF;stroke-width:1.25;stroke-miterlimit:10;}
	.st16{fill:url(#SVGID_17_);}
	.st17{fill:url(#SVGID_18_);}
	.st18{fill:url(#SVGID_19_);}
	.st19{fill:url(#SVGID_20_);}
	.st20{fill:url(#SVGID_21_);}
	.st21{fill:url(#SVGID_22_);}
	.st22{fill-rule:evenodd;clip-rule:evenodd;fill:#00478C;}
	.st23{fill:none;stroke:#00478C;stroke-width:1.5;stroke-linecap:square;stroke-miterlimit:10;}
	.st24{fill-rule:evenodd;clip-rule:evenodd;fill:none;stroke:#00478C;stroke-width:1.5;stroke-miterlimit:10;}
	.st25{fill-rule:evenodd;clip-rule:evenodd;fill:none;stroke:#000000;stroke-width:1.5;stroke-miterlimit:10;}
	.st26{fill:none;stroke:#00478C;stroke-width:1.5;stroke-linecap:round;stroke-miterlimit:10;}
	.st27{fill:none;stroke:#000000;stroke-width:1.5;stroke-linecap:round;stroke-miterlimit:10;}
</style>
<g>
	<g>
		<path class="st3" d="M7.39,32.65c0,1.21,0.98,2.19,2.19,2.19s2.19-0.98,2.19-2.19c0-1.21-0.99-1.99-2.19-2.19
			c-1.19-0.2-2.19-0.98-2.19-2.19c0-1.21,0.98-2.19,2.19-2.19s2.19,0.98,2.19,2.19"/>
		<line class="st3" x1="9.58" y1="34.85" x2="9.58" y2="36.72"/>
		<line class="st3" x1="9.58" y1="24.38" x2="9.58" y2="26.08"/>
	</g>
	<line class="st3" x1="14.25" y1="26.25" x2="26.09" y2="26.25"/>
	<line class="st3" x1="14.25" y1="32.29" x2="27.08" y2="32.29"/>
	<line class="st3" x1="6.22" y1="40.61" x2="21.43" y2="40.61"/>
	<line class="st3" x1="23.87" y1="40.61" x2="29.55" y2="40.61"/>
	<polyline class="st3" points="47.13,21.73 51.12,21.73 51.12,45.14 2.78,45.14 2.78,21.73 35.95,21.73 	"/>
	<path class="st3" d="M50.91,12.15c-6.08,14.01-11.19,23.91-11.19,23.91l-6.27,3.96l-1.39-7.29c0,0,3.08-8.95,9.84-24.5
		c0.76-1.75,2.18-1.99,3.55-1.4l4.07,1.77C50.88,9.19,51.67,10.4,50.91,12.15z"/>
	<path class="st3" d="M44.36,6.36l0.59-1.35c0.4-0.93,1.48-1.35,2.41-0.95l2.76,1.2c0.93,0.4,1.35,1.48,0.95,2.41l-0.59,1.35"/>
	<line class="st3" x1="32.06" y1="32.73" x2="39.72" y2="36.06"/>
	<line class="st3" x1="40.79" y1="22.6" x2="46.09" y2="10.4"/>
</g>
</svg>
