<svg id="Layer_1" data-name="Layer 1" xmlns="http://www.w3.org/2000/svg" viewBox="0 0 54 48"><defs><style>.cls-1{fill:none;stroke:#00478c;stroke-miterlimit:10;stroke-width:1.5px;}</style></defs><title>FNB-icon-construction</title><polygon class="cls-1" points="24.23 40.91 19.4 45.74 10.26 36.6 6.13 36.62 13.04 29.71 38.08 4.67 44.82 11.4 42.6 11.79 42.99 14 40.75 14.39 41.16 16.68 38.88 17.08 39.28 19.29 37.05 19.69 37.44 21.92 35.2 22.31 35.6 24.62 33.25 25.04 33.66 27.35 31.38 27.75 31.79 30.08 29.48 30.49 29.89 32.83 27.57 33.24 27.97 35.51 25.7 35.91 26.1 38.2 23.78 38.61 24.23 40.91"/><polyline class="cls-1" points="15.7 32.38 13.25 34.82 19.13 40.69 21.57 38.25"/><line class="cls-1" x1="13.04" y1="29.71" x2="24.23" y2="40.91"/><polyline class="cls-1" points="29.59 30.39 40.82 41.63 44.95 37.5 33.71 26.25"/><polyline class="cls-1" points="25.11 17.64 21.14 13.66 17 17.79 21.38 22.17"/><path class="cls-1" d="M14.74,17.45A5.36,5.36,0,0,0,10.39,25l-.3.12c-3.46-3.46-3.54-8-.46-11.1l6.91-6.91L22.1,12.7,16,18.75Z"/><path class="cls-1" d="M17.35,8c1.65,0,2.34-.67,2.34-2.38s.21-1.8.21-1.8l1.53-1.53L27,7.81,25.46,9.34s-.12.21-1.79.21-2.38.69-2.39,2.33"/></svg>