<svg id="Layer_1" data-name="Layer 1" xmlns="http://www.w3.org/2000/svg" viewBox="0 0 54 48"><defs><style>.cls-1{fill:none;stroke:#00478c;stroke-miterlimit:10;stroke-width:1.5px;}</style></defs><title>FNB-icon-money-bag</title><path class="cls-1" d="M24.73,32.31a2.27,2.27,0,1,0,4.54,0A2.42,2.42,0,0,0,27,30.05a2.43,2.43,0,0,1-2.27-2.27,2.27,2.27,0,0,1,4.54,0"/><line class="cls-1" x1="27" y1="34.48" x2="27" y2="36.9"/><line class="cls-1" x1="27" y1="23.2" x2="27" y2="25.62"/><circle class="cls-1" cx="27" cy="30.55" r="9.9"/><line class="cls-1" x1="24.9" y1="12.38" x2="16.62" y2="12.84"/><line class="cls-1" x1="17.82" y1="9.81" x2="24.9" y2="12.38"/><path class="cls-1" d="M13,42.36c-.65-13.59,1.47-21.52,4.32-25.56S27,12.29,27,12.29c-7.66,0-5.87-6.92-5.87-6.92s2.18-2.17,3.57-1c1.91,1.56,3.22-2.21,4.78-.21a3.44,3.44,0,0,0,3.39,1.25s1.74,6.92-5.87,6.92c0,0,6.79.46,9.64,4.51s5,12,4.32,25.56c-6.34,2.39-14,2.11-14,2.11S19.38,44.75,13,42.36Z"/></svg>