<svg id="Layer_1" data-name="Layer 1" xmlns="http://www.w3.org/2000/svg" viewBox="0 0 54 48"><defs><style>.cls-1{fill:none;stroke:#00478c;stroke-miterlimit:10;stroke-width:1.5px;}.cls-2{fill:#00478c;}</style></defs><title>FNB-icon-fixed-variable</title><line class="cls-1" x1="5.42" y1="44.91" x2="47.71" y2="2.62"/><path class="cls-1" d="M31.4,15.53h0a2.7,2.7,0,0,0-2.7-2.7H13.28a2.7,2.7,0,0,0-2.7,2.7V27.31A2.69,2.69,0,0,0,13.28,30h3.64"/><path class="cls-1" d="M27,12.72,27.05,8A6.06,6.06,0,0,0,14.94,8v4.91"/><line class="cls-1" x1="20.99" y1="20" x2="20.99" y2="24.61"/><circle class="cls-2" cx="20.99" cy="19.18" r="1.35"/><polyline class="cls-1" points="44.34 37.06 44.34 21.1 48.42 21.1 38.86 11.55 29.31 21.1 33.38 21.1 33.38 37.25 37.46 37.25 27.9 46.8 18.34 37.25 22.42 37.25 22.42 28.02"/><polygon class="cls-2" points="18.43 29.25 16.93 29.25 16.93 30.75 18.43 29.25"/><polygon class="cls-2" points="32.15 15.53 30.65 15.53 30.65 17.03 32.15 15.53"/></svg>