<?xml version="1.0" encoding="utf-8"?>
<!-- Generator: Adobe Illustrator 23.0.3, SVG Export Plug-In . SVG Version: 6.00 Build 0)  -->
<svg version="1.1" id="Layer_1" xmlns="http://www.w3.org/2000/svg" xmlns:xlink="http://www.w3.org/1999/xlink" x="0px" y="0px"
	 viewBox="0 0 54 48" style="enable-background:new 0 0 54 48;" xml:space="preserve">
<style type="text/css">
	.st0{fill:none;stroke:#000000;stroke-width:1.5;stroke-miterlimit:10;}
	.st1{fill-rule:evenodd;clip-rule:evenodd;}
	.st2{clip-path:url(#SVGID_2_);}
	.st3{fill:none;stroke:#00478C;stroke-width:1.5;stroke-miterlimit:10;}
	.st4{clip-path:url(#SVGID_4_);fill:#A80D32;}
	.st5{fill:#FFFFFF;stroke:#000000;stroke-width:1.5;stroke-miterlimit:10;}
	.st6{fill-rule:evenodd;clip-rule:evenodd;fill:#FFFFFF;}
	.st7{fill:#00478C;}
	.st8{clip-path:url(#SVGID_8_);fill:#A80D32;}
	.st9{fill:url(#SVGID_11_);}
	.st10{fill:url(#SVGID_12_);}
	.st11{fill:url(#SVGID_13_);}
	.st12{fill:url(#SVGID_14_);}
	.st13{fill:url(#SVGID_15_);}
	.st14{fill:url(#SVGID_16_);}
	.st15{fill:none;stroke:#FFFFFF;stroke-width:1.25;stroke-miterlimit:10;}
	.st16{fill:url(#SVGID_17_);}
	.st17{fill:url(#SVGID_18_);}
	.st18{fill:url(#SVGID_19_);}
	.st19{fill:url(#SVGID_20_);}
	.st20{fill:url(#SVGID_21_);}
	.st21{fill:url(#SVGID_22_);}
	.st22{fill-rule:evenodd;clip-rule:evenodd;fill:#00478C;}
	.st23{fill:none;stroke:#00478C;stroke-width:1.5;stroke-linecap:square;stroke-miterlimit:10;}
	.st24{fill-rule:evenodd;clip-rule:evenodd;fill:none;stroke:#00478C;stroke-width:1.5;stroke-miterlimit:10;}
	.st25{fill-rule:evenodd;clip-rule:evenodd;fill:none;stroke:#000000;stroke-width:1.5;stroke-miterlimit:10;}
	.st26{fill:none;stroke:#00478C;stroke-width:1.5;stroke-linecap:round;stroke-miterlimit:10;}
	.st27{fill:none;stroke:#000000;stroke-width:1.5;stroke-linecap:round;stroke-miterlimit:10;}
</style>
<g>
	<path class="st3" d="M6.12,45.19c-2.29,0-4.14-1.85-4.14-4.14V22.97c0-2.29,1.85-4.14,4.14-4.14h30.04c2.29,0,4.14,1.85,4.14,4.14
		v18.08c0,2.29-1.85,4.14-4.14,4.14H6.12z"/>
	<line class="st3" x1="2.11" y1="25.28" x2="39.96" y2="25.28"/>
	<line class="st3" x1="2.11" y1="31.07" x2="39.96" y2="31.07"/>
	<line class="st3" x1="7.27" y1="36.06" x2="27.77" y2="36.06"/>
	<line class="st3" x1="7.27" y1="39.91" x2="14.12" y2="39.91"/>
	<line class="st3" x1="17.03" y1="39.91" x2="22.17" y2="39.91"/>
	<path class="st3" d="M11.28,18.71l-0.89-3.66c-0.54-2.22,0.82-4.46,3.04-5l29.18-7.12c2.22-0.54,4.46,0.82,5,3.04l4.28,17.56
		c0.54,2.22-0.82,4.46-3.04,5l-8.99,2.19"/>
	<line class="st3" x1="11.07" y1="17.27" x2="47.84" y2="8.3"/>
	<line class="st3" x1="28.97" y1="18.86" x2="49.21" y2="13.92"/>
</g>
</svg>
