<?xml version="1.0" encoding="utf-8"?>
<!-- Generator: Adobe Illustrator 23.0.3, SVG Export Plug-In . SVG Version: 6.00 Build 0)  -->
<svg version="1.1" id="Layer_1" xmlns="http://www.w3.org/2000/svg" xmlns:xlink="http://www.w3.org/1999/xlink" x="0px" y="0px"
	 viewBox="0 0 54 48" style="enable-background:new 0 0 54 48;" xml:space="preserve">
<style type="text/css">
	.st0{fill:none;stroke:#000000;stroke-width:1.5;stroke-miterlimit:10;}
	.st1{fill-rule:evenodd;clip-rule:evenodd;}
	.st2{clip-path:url(#SVGID_2_);}
	.st3{fill:none;stroke:#00478C;stroke-width:1.5;stroke-miterlimit:10;}
	.st4{clip-path:url(#SVGID_4_);fill:#A80D32;}
	.st5{fill:#FFFFFF;stroke:#000000;stroke-width:1.5;stroke-miterlimit:10;}
	.st6{fill-rule:evenodd;clip-rule:evenodd;fill:#FFFFFF;}
	.st7{fill:#00478C;}
	.st8{clip-path:url(#SVGID_8_);fill:#A80D32;}
	.st9{fill:url(#SVGID_11_);}
	.st10{fill:url(#SVGID_12_);}
	.st11{fill:url(#SVGID_13_);}
	.st12{fill:url(#SVGID_14_);}
	.st13{fill:url(#SVGID_15_);}
	.st14{fill:url(#SVGID_16_);}
	.st15{fill:none;stroke:#FFFFFF;stroke-width:1.25;stroke-miterlimit:10;}
	.st16{fill:url(#SVGID_17_);}
	.st17{fill:url(#SVGID_18_);}
	.st18{fill:url(#SVGID_19_);}
	.st19{fill:url(#SVGID_20_);}
	.st20{fill:url(#SVGID_21_);}
	.st21{fill:url(#SVGID_22_);}
	.st22{fill-rule:evenodd;clip-rule:evenodd;fill:#00478C;}
	.st23{fill:none;stroke:#00478C;stroke-width:1.5;stroke-linecap:square;stroke-miterlimit:10;}
	.st24{fill-rule:evenodd;clip-rule:evenodd;fill:none;stroke:#00478C;stroke-width:1.5;stroke-miterlimit:10;}
	.st25{fill-rule:evenodd;clip-rule:evenodd;fill:none;stroke:#000000;stroke-width:1.5;stroke-miterlimit:10;}
	.st26{fill:none;stroke:#00478C;stroke-width:1.5;stroke-linecap:round;stroke-miterlimit:10;}
	.st27{fill:none;stroke:#000000;stroke-width:1.5;stroke-linecap:round;stroke-miterlimit:10;}
</style>
<g>
	<path class="st3" d="M37.6,33.09H5.5c-1.17,0-2.12-0.95-2.12-2.12V8.21c0-1.17,0.95-2.12,2.12-2.12h33.9
		c1.17,0,2.12,0.95,2.12,2.12v11.12"/>
	<line class="st3" x1="3.57" y1="26.92" x2="37.6" y2="26.92"/>
	<circle class="st3" cx="22.44" cy="30.36" r="0.64"/>
	<g>
		<line class="st3" x1="18.94" y1="33.09" x2="18.94" y2="42.75"/>
		<line class="st3" x1="25.95" y1="33.09" x2="25.95" y2="42.75"/>
	</g>
	<line class="st3" x1="10.89" y1="42.75" x2="34" y2="42.75"/>
	<g>
		<path class="st3" d="M47.62,45.02h-6.94c-1.66,0-3-1.34-3-3V22.51c0-1.66,1.34-3,3-3h6.94c1.66,0,3,1.34,3,3v19.51
			C50.62,43.68,49.28,45.02,47.62,45.02z"/>
		<line class="st3" x1="37.98" y1="22.65" x2="50.37" y2="22.65"/>
		<line class="st3" x1="37.98" y1="41.11" x2="50.37" y2="41.11"/>
		<rect x="39.71" y="24.9" class="st3" width="3.43" height="3.43"/>
		<rect x="45.16" y="24.9" class="st3" width="3.43" height="3.43"/>
		<rect x="39.71" y="30.58" class="st3" width="3.43" height="3.43"/>
	</g>
</g>
</svg>
