<svg id="Layer_1" data-name="Layer 1" xmlns="http://www.w3.org/2000/svg" viewBox="0 0 54 48"><defs><style>.cls-1,.cls-2{fill:none;stroke:#00478c;stroke-width:1.5px;}.cls-1{stroke-miterlimit:10;}.cls-2{stroke-linejoin:bevel;}</style></defs><title>FNB-icon-retirement</title><path class="cls-1" d="M1.06,41.38h0A7.11,7.11,0,0,0,8,41.47l.3-.17a7.09,7.09,0,0,1,6.93.08h0a7.09,7.09,0,0,0,6.93.09l.3-.17a7.09,7.09,0,0,1,6.93.08h0a7.11,7.11,0,0,0,6.94.09l.3-.17a7.09,7.09,0,0,1,6.93.08h0a7.09,7.09,0,0,0,6.93.09"/><path class="cls-1" d="M45.65,42.18a27.16,27.16,0,0,0-39.81,0"/><path class="cls-2" d="M29.16,17.44a12.49,12.49,0,0,1,10.28,4,12.51,12.51,0,0,1,10.49,4.24A17.13,17.13,0,0,0,18.58,13.45a12.49,12.49,0,0,1,10.58,4Z"/><line class="cls-2" x1="33.51" y1="17.8" x2="27.36" y2="33.57"/><line class="cls-2" x1="35.99" y1="18.77" x2="30.1" y2="33.86"/><path class="cls-2" d="M39.31,6.6S32.79,8.13,29.16,17.44"/><path class="cls-2" d="M39.31,6.6s3.77,5.54.13,14.85"/></svg>