<svg id="Layer_1" data-name="Layer 1" xmlns="http://www.w3.org/2000/svg" viewBox="0 0 54 48"><defs><style>.cls-1{fill:none;stroke:#00478c;stroke-miterlimit:10;stroke-width:1.5px;}.cls-2{fill:#00478c;}</style></defs><title>FNB-icon-guaranteed</title><rect class="cls-1" x="16" y="19.55" width="5.79" height="12.39"/><circle class="cls-2" cx="18.9" cy="28.42" r="1.25"/><path class="cls-1" d="M21.79,21.49c2.79-2.79,5-3.77,5-6.94V12.47a4.11,4.11,0,0,1,4.1,4.1V20"/><path class="cls-1" d="M21.94,31a2.75,2.75,0,0,1,2.48.07c1.11.72,2.36,1.79,3.66,1.79h6.7c1.71,0,2.56-.64,2.79-2l1.64-9.27L28.5,19.78"/><polygon class="cls-1" points="27.2 1.89 31.19 5.48 36.32 3.91 38.5 8.81 43.83 9.46 43.83 14.83 48.43 17.59 46.24 22.5 49.32 26.89 45.33 30.48 46.36 35.75 41.25 37.4 40.05 42.63 34.71 42.07 31.48 46.36 26.84 43.67 22.14 46.27 18.99 41.93 13.65 42.4 12.54 37.15 7.46 35.41 8.58 30.16 4.65 26.5 7.81 22.16 5.71 17.22 10.36 14.54 10.45 9.17 15.79 8.62 18.05 3.75 23.16 5.41 27.2 1.89"/><circle class="cls-1" cx="27.01" cy="24.4" r="16.3"/></svg>