<svg id="Layer_1" data-name="Layer 1" xmlns="http://www.w3.org/2000/svg" viewBox="0 0 54 48"><defs><style>.cls-1{fill:none;stroke:#00478c;stroke-miterlimit:10;stroke-width:1.5px;}</style></defs><title>FNB-icon-desktop-paper</title><path class="cls-1" d="M32,33.09H5.5A2.12,2.12,0,0,1,3.38,31V8.21A2.12,2.12,0,0,1,5.5,6.09H39.39a2.12,2.12,0,0,1,2.12,2.12V19.33"/><line class="cls-1" x1="3.57" y1="26.92" x2="31.83" y2="26.92"/><circle class="cls-1" cx="22.44" cy="30.36" r="0.64"/><line class="cls-1" x1="18.94" y1="33.09" x2="18.94" y2="42.75"/><line class="cls-1" x1="25.95" y1="33.09" x2="25.95" y2="42.75"/><line class="cls-1" x1="10.89" y1="42.75" x2="32" y2="42.75"/><rect class="cls-1" x="32" y="19.11" width="18.67" height="26.31"/><line class="cls-1" x1="35.46" y1="23.12" x2="47.21" y2="23.12"/><line class="cls-1" x1="35.46" y1="26.55" x2="47.21" y2="26.55"/><line class="cls-1" x1="35.46" y1="29.98" x2="47.21" y2="29.98"/><line class="cls-1" x1="35.46" y1="38.03" x2="42.21" y2="38.03"/><line class="cls-1" x1="35.46" y1="41.46" x2="43.24" y2="41.46"/></svg>