<svg id="Layer_1" data-name="Layer 1" xmlns="http://www.w3.org/2000/svg" viewBox="0 0 54 48"><defs><style>.cls-1{fill:none;stroke:#00478c;stroke-width:1.5px;}</style></defs><title>FNB-icon-no-min-balance</title><path class="cls-1" d="M48.93,24A21.34,21.34,0,1,1,27.59,2.69,21.3,21.3,0,0,1,48.93,24Z"/><line class="cls-1" x1="16.53" y1="42.29" x2="38.65" y2="5.78"/><path class="cls-1" d="M35.46,18c-.58-3.87-3.68-6.16-8.38-6.16-4.54,0-7.57,2.42-7.57,6,0,2.8,2.06,4.76,6,5.47l4.19.78c3.7.71,5.83,2.58,5.83,5.54,0,3.9-3.22,6.51-8,6.51-5.19,0-8.38-2.64-9-7.41"/><line class="cls-1" x1="27.59" y1="11.91" x2="27.59" y2="6.67"/><line class="cls-1" x1="27.59" y1="41.4" x2="27.59" y2="36.16"/></svg>