<svg id="Layer_1" data-name="Layer 1" xmlns="http://www.w3.org/2000/svg" viewBox="0 0 54 48"><defs><style>.cls-1{fill:none;stroke:#00478c;stroke-width:1.5px;}</style></defs><title>FNB-icon-no-monthly-fee</title><path class="cls-1" d="M48,24A21.35,21.35,0,1,1,26.68,2.69,21.31,21.31,0,0,1,48,24Z"/><line class="cls-1" x1="15.63" y1="42.29" x2="37.74" y2="5.78"/><rect class="cls-1" x="14.12" y="18.88" width="25.13" height="17.8"/><rect class="cls-1" x="14.12" y="13.9" width="25.13" height="4.98"/><line class="cls-1" x1="17.26" y1="11.57" x2="17.26" y2="16.23"/><line class="cls-1" x1="36.13" y1="11.57" x2="36.13" y2="16.23"/><path class="cls-1" d="M17.5,24.87a3,3,0,0,1,3.3-2.61c2,0,3.35,1.19,3.35,2.93,0,1.19-.95,2.42-3.1,2.42,2.15,0,3.41,1.46,3.41,2.73,0,1.74-1.42,2.94-3.57,2.94s-3.53-1.06-3.68-2.65"/><path class="cls-1" d="M36.17,27.79c0,3.29-1.66,5.53-4.5,5.53s-4.49-2.24-4.49-5.53,1.67-5.54,4.49-5.54S36.17,24.49,36.17,27.79Z"/></svg>