<svg id="Layer_1" data-name="Layer 1" xmlns="http://www.w3.org/2000/svg" viewBox="0 0 54 48"><defs><style>.cls-1{fill:none;stroke:#00478c;stroke-miterlimit:10;stroke-width:1.5px;}.cls-2{fill:#00478c;}</style></defs><title>FNB-icon-payment</title><rect class="cls-1" x="3.27" y="23.69" width="8.31" height="17.78"/><circle class="cls-2" cx="7.43" cy="36.42" r="1.79"/><path class="cls-1" d="M11.58,26.48A14.39,14.39,0,0,1,17.8,25a14.3,14.3,0,0,1,4.23.67,6.89,6.89,0,0,0,4.44-.1l4.11-1.48A5.79,5.79,0,0,1,38,27.64h0L26,31.88"/><path class="cls-1" d="M37.22,26.29,43.63,24a5.5,5.5,0,0,1,7,3.34l.33,1L23.14,38.28a8.66,8.66,0,0,1-7.79-.76,4.24,4.24,0,0,0-3.55-.1"/><circle class="cls-1" cx="27" cy="13.62" r="8.01"/><path class="cls-1" d="M25.06,15.56a1.94,1.94,0,1,0,3.88,0A2.08,2.08,0,0,0,27,13.62a2.07,2.07,0,0,1-1.94-1.94,1.94,1.94,0,1,1,3.88,0"/><line class="cls-1" x1="27" y1="17.42" x2="27" y2="19.49"/><line class="cls-1" x1="27" y1="7.75" x2="27" y2="9.83"/></svg>