<?xml version="1.0" encoding="utf-8"?>
<!-- Generator: Adobe Illustrator 23.0.3, SVG Export Plug-In . SVG Version: 6.00 Build 0)  -->
<svg version="1.1" id="Layer_1" xmlns="http://www.w3.org/2000/svg" xmlns:xlink="http://www.w3.org/1999/xlink" x="0px" y="0px"
	 viewBox="0 0 54 48" style="enable-background:new 0 0 54 48;" xml:space="preserve">
<style type="text/css">
	.st0{fill:none;stroke:#000000;stroke-width:1.5;stroke-miterlimit:10;}
	.st1{fill-rule:evenodd;clip-rule:evenodd;}
	.st2{clip-path:url(#SVGID_2_);}
	.st3{fill:none;stroke:#FFFFFF;stroke-width:1.5;stroke-miterlimit:10;}
	.st4{clip-path:url(#SVGID_4_);fill:#A80D32;}
	.st5{fill:#FFFFFF;stroke:#000000;stroke-width:1.5;stroke-miterlimit:10;}
	.st6{fill-rule:evenodd;clip-rule:evenodd;fill:#FFFFFF;}
	.st7{fill:#FFFFFF;}
	.st8{clip-path:url(#SVGID_8_);fill:#A80D32;}
	.st9{fill:url(#SVGID_11_);}
	.st10{fill:url(#SVGID_12_);}
	.st11{fill:url(#SVGID_13_);}
	.st12{fill:url(#SVGID_14_);}
	.st13{fill:url(#SVGID_15_);}
	.st14{fill:url(#SVGID_16_);}
	.st15{fill:none;stroke:#FFFFFF;stroke-width:1.25;stroke-miterlimit:10;}
	.st16{fill:url(#SVGID_17_);}
	.st17{fill:url(#SVGID_18_);}
	.st18{fill:url(#SVGID_19_);}
	.st19{fill:url(#SVGID_20_);}
	.st20{fill:url(#SVGID_21_);}
	.st21{fill:url(#SVGID_22_);}
	.st22{fill:none;stroke:#FFFFFF;stroke-width:1.5;stroke-linecap:square;stroke-miterlimit:10;}
	.st23{fill-rule:evenodd;clip-rule:evenodd;fill:none;stroke:#FFFFFF;stroke-width:1.5;stroke-miterlimit:10;}
	.st24{fill-rule:evenodd;clip-rule:evenodd;fill:none;stroke:#000000;stroke-width:1.5;stroke-miterlimit:10;}
	.st25{fill:none;stroke:#FFFFFF;stroke-width:1.5;stroke-linecap:round;stroke-miterlimit:10;}
	.st26{fill:none;stroke:#000000;stroke-width:1.5;stroke-linecap:round;stroke-miterlimit:10;}
</style>
<g>
	<path class="st3" d="M24.73,32.31c0,1.25,1.01,2.27,2.27,2.27s2.27-1.01,2.27-2.27c0-1.25-1.02-2.06-2.27-2.27
		c-1.23-0.21-2.27-1.01-2.27-2.27s1.01-2.27,2.27-2.27s2.27,1.01,2.27,2.27"/>
	<line class="st3" x1="27" y1="34.48" x2="27" y2="36.9"/>
	<line class="st3" x1="27" y1="23.2" x2="27" y2="25.62"/>
</g>
<circle class="st3" cx="27" cy="30.55" r="9.9"/>
<g>
	<line class="st3" x1="24.9" y1="12.38" x2="16.62" y2="12.84"/>
	<line class="st3" x1="17.82" y1="9.81" x2="24.9" y2="12.38"/>
	<path class="st3" d="M24.35,44.47c0,0-4.96,0.28-11.31-2.11c-0.65-13.59,1.47-21.51,4.32-25.56S27,12.29,27,12.29
		c-7.63,0.18-5.87-6.92-5.87-6.92s2.18-2.17,3.57-1.04c1.91,1.56,3.23-2.21,4.79-0.21c1.36,1.75,3.39,1.25,3.39,1.25
		s1.76,7.1-5.87,6.92c0,0,6.79,0.46,9.64,4.51c2.85,4.05,4.97,11.97,4.32,25.56c-6.34,2.39-11.31,2.11-11.31,2.11"/>
</g>
</svg>
