<svg id="Layer_1" data-name="Layer 1" xmlns="http://www.w3.org/2000/svg" xmlns:xlink="http://www.w3.org/1999/xlink" viewBox="0 0 40 40"><defs><style>.cls-1,.cls-10,.cls-2{fill:none;}.cls-2{clip-rule:evenodd;}.cls-3{clip-path:url(#clip-path);}.cls-4{clip-path:url(#clip-path-2);}.cls-5{clip-path:url(#clip-path-3);}.cls-6{clip-path:url(#clip-path-4);}.cls-7{clip-path:url(#clip-path-5);}.cls-8{clip-path:url(#clip-path-6);}.cls-9{fill:url(#linear-gradient);}.cls-10{stroke:#fff;stroke-miterlimit:10;stroke-width:1.25px;}</style><clipPath id="clip-path"><rect class="cls-1" x="-731.3" y="481.77" width="52.12" height="43.38"/></clipPath><clipPath id="clip-path-2"><rect class="cls-1" x="-627.66" y="508.88" width="37.61" height="11.69"/></clipPath><clipPath id="clip-path-3"><path class="cls-2" d="M-596.29,518.17a.59.59,0,0,1-.23,0l-6.8-3a.6.6,0,0,1-.35-.45.59.59,0,0,1,.49-.67l9.23-1.48h.08a.59.59,0,0,1,.29.07.59.59,0,0,1,.22.8l-2.43,4.42A.57.57,0,0,1-596.29,518.17Zm-4.72-3.28,4.46,1.93,1.6-2.9Z"/></clipPath><clipPath id="clip-path-4"><path class="cls-2" d="M-620.65,518.17a.59.59,0,0,1-.51-.31l-2.42-4.42a.53.53,0,0,1-.08-.26.66.66,0,0,1,.15-.42.59.59,0,0,1,.41-.19l9.34,1.48a.58.58,0,0,1,.45.35.59.59,0,0,1-.31.77l-6.8,3A.59.59,0,0,1-620.65,518.17Zm.26-1.35,4.46-1.92-6.06-1Z"/></clipPath><clipPath id="clip-path-5"><path class="cls-2" d="M-636.66,505.37a.6.6,0,0,1-.43-.17.65.65,0,0,1-.16-.42.59.59,0,0,1,.58-.58h8.59l.11-.22,6.64-21.11a3.16,3.16,0,0,1,3-2.26,2.65,2.65,0,0,1,1.44.42l4.62,2.88a7,7,0,0,0,3.44.91,7,7,0,0,0,3.43-.9l4.63-2.91a2.77,2.77,0,0,1,1.45-.41,2.82,2.82,0,0,1,1.16.25,3.2,3.2,0,0,1,1.79,2l6.5,21.32h8.83a.53.53,0,0,1,.42.18.58.58,0,0,1,.17.41.6.6,0,0,1-.58.59Zm10.93-4.68-1.1,3.51h35.71l-1.14-3.77-.3,0h-7.67a.58.58,0,0,1-.58-.6.58.58,0,0,1,.57-.58h7.63l-4.89-16a2,2,0,0,0-1.83-1.47,1.67,1.67,0,0,0-.88.26l-4.66,2.92a8.09,8.09,0,0,1-4,1.06,8.05,8.05,0,0,1-4-1.05l-4.68-2.91a1.68,1.68,0,0,0-.89-.26,2,2,0,0,0-1.82,1.45l-5,16h18.34a.6.6,0,0,1,.42.18.59.59,0,0,1,.17.42.59.59,0,0,1-.58.58h-18.22l-.33-.07Z"/></clipPath><clipPath id="clip-path-6"><path class="cls-2" d="M-602.87,499.78a.8.8,0,0,1-.8-.8.8.8,0,0,1,.8-.8.8.8,0,0,1,.79.8.8.8,0,0,1-.79.8"/></clipPath><linearGradient id="linear-gradient" x1="39.77" y1="8.6" x2="4.12" y2="29.16" gradientUnits="userSpaceOnUse"><stop offset="0" stop-color="#00c3e5"/><stop offset="0.03" stop-color="#00bfe2"/><stop offset="0.49" stop-color="#007fb4"/><stop offset="0.83" stop-color="#005697"/><stop offset="1" stop-color="#00478c"/></linearGradient></defs><title>FNB-icon</title><circle class="cls-9" cx="20" cy="20" r="20"/><path class="cls-10" d="M7.5,24.88V12.2A2.23,2.23,0,0,1,9.73,10H30.27A2.23,2.23,0,0,1,32.5,12.2V24.88"/><path class="cls-10" d="M25.69,24.87a.83.83,0,0,1-.76.49H15.07a.83.83,0,0,1-.76-.49H5v.93A2.23,2.23,0,0,0,7.23,28H32.77A2.23,2.23,0,0,0,35,25.8v-.93Z"/><path class="cls-10" d="M9.88,24.79V13a.63.63,0,0,1,.63-.63h19a.63.63,0,0,1,.63.63v9.18"/><line class="cls-10" x1="16.65" y1="19.82" x2="16.65" y2="23.45"/><line class="cls-10" x1="20" y1="17.24" x2="20" y2="23.36"/><line class="cls-10" x1="23.35" y1="14.72" x2="23.35" y2="23.5"/></svg>