<svg data-name="Layer 1" xmlns="http://www.w3.org/2000/svg" viewBox="0 0 34 35"><defs><style>.cls-1{fill:#00387a;fill-rule:evenodd;}</style></defs><title>Artboard 1</title><g><g><g><path class="cls-1" d="M16.75,4.77a7.87,7.87,0,0,0-7.77,8C9,17.2,14.73,26,16.75,28.9c2-2.94,7.77-11.7,7.77-16.17a7.87,7.87,0,0,0-7.77-8m0,26.53a.84.84,0,0,1-.69-.36c-.36-.49-8.81-12.23-8.81-18.21A9.62,9.62,0,0,1,16.75,3a9.62,9.62,0,0,1,9.5,9.73c0,6-8.45,17.72-8.81,18.21a.84.84,0,0,1-.69.36"/><path class="cls-1" d="M16.75,9.87a2.73,2.73,0,1,0,2.7,2.73,2.72,2.72,0,0,0-2.7-2.73m0,7.28a4.55,4.55,0,1,1,4.5-4.55,4.53,4.53,0,0,1-4.5,4.55"/></g></g></g></svg>