<svg width="19" height="29" xmlns="http://www.w3.org/2000/svg"><g fill="#00387A" fill-rule="evenodd"><path d="M9.5 1.962c-4.285 0-7.773 3.572-7.773 7.96 0 4.476 5.75 13.229 7.773 16.17 2.024-2.942 7.773-11.698 7.773-16.17 0-4.388-3.487-7.96-7.773-7.96m0 26.533a.856.856 0 0 1-.694-.358C8.447 27.64 0 15.905 0 9.922 0 4.558 4.262.194 9.5.194S19 4.558 19 9.922c0 5.983-8.446 17.718-8.806 18.215a.856.856 0 0 1-.694.358"/><path d="M9.5 7.067c-1.489 0-2.7 1.224-2.7 2.729 0 1.504 1.211 2.729 2.7 2.729s2.7-1.225 2.7-2.73c0-1.504-1.211-2.728-2.7-2.728m0 7.277c-2.481 0-4.5-2.04-4.5-4.548s2.019-4.549 4.5-4.549S14 7.287 14 9.796c0 2.508-2.019 4.548-4.5 4.548"/></g></svg>