<svg width="27" height="28" xmlns="http://www.w3.org/2000/svg"><path d="M25.07 21.827a572.001 572.001 0 0 0-3.446-3.57c-.668-.685-1.401-.685-2.066-.003l-1.112 1.147-.966.996c-.35.36-.35.36-.436.452-.35.36-.931.474-1.363.284a16.337 16.337 0 0 1-1.164-.535 20.385 20.385 0 0 1-2.534-1.494 13.414 13.414 0 0 1-1.885-1.561c-.604-.612-1.176-1.377-1.716-2.26-.48-.79-.91-1.63-1.284-2.47-.226-.505-.384-.9-.464-1.118a1.394 1.394 0 0 1 .282-1.41l.398-.414.88-.912 1.163-1.21c.706-.737.705-1.476-.007-2.222-.773-.809-2.923-3.04-3.416-3.54-.67-.684-1.41-.684-2.076-.005a6.952 6.952 0 0 0-.535.638 15.99 15.99 0 0 0-.264.36 28.983 28.983 0 0 0-.924 1.377c-.672 1.021-.92 2.891-.508 4.074.034.133.11.394.234.766.208.63.472 1.334.797 2.091a29.532 29.532 0 0 0 3.72 6.367c.474.613.971 1.203 1.494 1.77a25.062 25.062 0 0 0 2.055 1.985 27.34 27.34 0 0 0 5.66 3.757c.675.336 1.3.613 1.86.833.33.13.563.212.728.266 1.113.443 2.944.298 3.992-.328a34.431 34.431 0 0 0 1.935-1.183c.465-.31.803-.566.954-.727.695-.724.696-1.488.014-2.2m-8.593-2.476c.439-.45.439-.45.965-.993.487-.504.87-.899 1.115-1.15 1.218-1.253 2.846-1.253 4.067 0a670.44 670.44 0 0 1 3.455 3.58c1.235 1.292 1.226 2.979-.014 4.277-.245.258-.647.563-1.194.928a37.204 37.204 0 0 1-1.51.94c-.23.137-.411.239-.5.289-1.404.84-3.684 1.02-5.148.436-.146-.047-.41-.14-.772-.282a25.271 25.271 0 0 1-1.968-.882 28.646 28.646 0 0 1-5.954-3.953 26.272 26.272 0 0 1-2.173-2.097 27.868 27.868 0 0 1-1.577-1.871A30.925 30.925 0 0 1 .517 9.676c-.135-.405-.22-.7-.245-.803-.55-1.572-.238-3.938.68-5.332.058-.091.159-.25.29-.452a21.964 21.964 0 0 1 .965-1.38c.241-.316.458-.577.655-.777C4.08-.312 5.706-.31 6.93.935c.497.507 2.652 2.74 3.43 3.555 1.26 1.319 1.264 2.986.005 4.298l-1.166 1.21c-.48.5-.48.5-.88.914l-.326.34c.081.21.213.537.394.942.35.787.753 1.57 1.198 2.3.483.796.989 1.472 1.504 1.994.476.481 1.045.949 1.686 1.393.749.52 1.553.988 2.359 1.39.418.21.752.36.98.457l.363-.376" fill="#00387A" fill-rule="evenodd"/></svg>