<svg width="24" height="22" xmlns="http://www.w3.org/2000/svg" xmlns:xlink="http://www.w3.org/1999/xlink">
                <defs>
                    <path id="a" d="M0 .406h2.56v2H0z"></path>
                    <path id="c" d="M.601.749H7.8v7.197H.601z"></path>
                    <path id="e" d="M.87.41H3v2H.87z"></path>
                </defs>
                <g fill="none" fill-rule="evenodd">
                    <g transform="translate(0 2.252)">
                        <mask id="b" fill="#fff"><use xlink:href="#a"></use></mask>
                        <path d="M2.352 1.347c0-.332.068-.646.172-.94H0v2h2.56a2.828 2.828 0 0 1-.208-1.06" fill="#00387A" mask="url(#b)"></path>
                    </g>
                    <path d="M7.877 2.657c.104.296.172.61.172.941 0 .375-.076.731-.208 1.06H24v-2H7.877z" fill="#00387A"></path>
                    <g transform="translate(1 -.748)">
                        <mask id="d" fill="#fff"><use xlink:href="#c"></use></mask>
                        <path d="M4.2 2.248a2.101 2.101 0 0 0-2.099 2.1c0 1.157.942 2.098 2.1 2.098a2.101 2.101 0 0 0 2.098-2.098 2.101 2.101 0 0 0-2.099-2.1m0 5.697A3.603 3.603 0 0 1 .601 4.348a3.603 3.603 0 0 1 3.6-3.599 3.603 3.603 0 0 1 3.598 3.6A3.603 3.603 0 0 1 4.2 7.946" fill="#00387A" mask="url(#d)"></path>
                    </g>
                    <path d="M16.377 10.705c0-.37.076-.72.204-1.044H0v2h16.554a2.81 2.81 0 0 1-.177-.956" fill="#00387A"></path>
                    <g transform="translate(21 9.252)">
                        <mask id="f" fill="#fff"><use xlink:href="#e"></use></mask>
                        <path d="M.87.41c.128.323.204.674.204 1.043 0 .337-.069.656-.177.956H3v-2H.87z" fill="#00387A" mask="url(#f)"></path>
                    </g>
                    <path d="M19.226 8.607a2.101 2.101 0 0 0-2.1 2.098c0 1.156.943 2.098 2.1 2.098a2.102 2.102 0 0 0 2.099-2.099 2.101 2.101 0 0 0-2.1-2.098m0 5.697a3.603 3.603 0 0 1-3.598-3.599 3.603 3.603 0 0 1 3.599-3.598 3.603 3.603 0 0 1 3.599 3.598 3.603 3.603 0 0 1-3.6 3.6M8.164 17.653c0-.35.071-.68.187-.99H.001v2h8.356a2.831 2.831 0 0 1-.193-1.01M13.674 16.664c.115.31.187.64.187.99 0 .356-.074.695-.194 1.01H24v-2H13.674z" fill="#00387A"></path>
                    <path d="M11.012 15.554a2.101 2.101 0 0 0-2.098 2.1 2.1 2.1 0 0 0 2.098 2.097 2.101 2.101 0 0 0 2.099-2.098 2.101 2.101 0 0 0-2.1-2.099m0 5.697a3.603 3.603 0 0 1-3.597-3.598 3.603 3.603 0 0 1 3.598-3.599 3.603 3.603 0 0 1 3.599 3.6 3.603 3.603 0 0 1-3.6 3.597" fill="#00387A"></path>
                </g>
            </svg>