<svg id="Layer_1" data-name="Layer 1" xmlns="http://www.w3.org/2000/svg" width="36" height="36" viewBox="0 0 36 36"><defs><style>.cls-1{fill:none;stroke:#00c3e5;stroke-miterlimit:10;stroke-width:1.5px;}</style></defs><title>FNB-icon-liteblue-hmd-loan</title><path class="cls-1" d="M16,23.19a2,2,0,0,0,4,0,2.15,2.15,0,0,0-2-2,2.15,2.15,0,0,1-2-2,2,2,0,1,1,4,0"/><line class="cls-1" x1="18" y1="25.11" x2="18" y2="27.26"/><line class="cls-1" x1="18" y1="15.1" x2="18" y2="17.25"/><line class="cls-1" x1="16.46" y1="9.27" x2="10.39" y2="9.61"/><line class="cls-1" x1="11.26" y1="7.38" x2="16.46" y2="9.27"/><path class="cls-1" d="M7.76,31.26c-.48-10,1.08-15.78,3.17-18.75S18,9.21,18,9.21c-5.62,0-4.31-5.08-4.31-5.08s1.6-1.59,2.62-.77c1.4,1.15,2.37-1.62,3.51-.15a2.54,2.54,0,0,0,2.49.92S23.58,9.21,18,9.21c0,0,5,.33,7.07,3.3s3.65,8.78,3.17,18.75A30.53,30.53,0,0,1,18,32.81,30.53,30.53,0,0,1,7.76,31.26Z"/></svg>