<svg id="Layer_1" data-name="Layer 1" xmlns="http://www.w3.org/2000/svg" width="36" height="36" viewBox="0 0 36 36"><defs><style>.cls-1{fill:none;stroke:#00c3e5;stroke-miterlimit:10;stroke-width:1.5px;}</style></defs><title>FNB-icon-liteblue-hmd-checking</title><path class="cls-1" d="M6.07,23.49a1.82,1.82,0,1,0,3.63,0,2,2,0,0,0-1.81-1.82,1.94,1.94,0,0,1-1.82-1.82,1.82,1.82,0,1,1,3.63,0"/><line class="cls-1" x1="7.89" y1="25.31" x2="7.89" y2="26.86"/><line class="cls-1" x1="7.89" y1="16.63" x2="7.89" y2="18.03"/><line class="cls-1" x1="11.86" y1="17.82" x2="19.42" y2="17.82"/><line class="cls-1" x1="11.86" y1="21.68" x2="18.38" y2="21.68"/><line class="cls-1" x1="11.86" y1="26.98" x2="19.63" y2="26.98"/><polyline class="cls-1" points="30.84 14.94 33.39 14.94 33.39 29.87 2.55 29.87 2.55 14.94 23.71 14.94"/><path class="cls-1" d="M33.26,8.82c-3.88,8.94-7.14,15.26-7.14,15.26l-4,2.53L21.23,22s2-5.71,6.28-15.64a1.57,1.57,0,0,1,2.26-.89l2.59,1.13A1.57,1.57,0,0,1,33.26,8.82Z"/><path class="cls-1" d="M29.77,5.37,30,4.81a.75.75,0,0,1,1-.39l1.14.49a.76.76,0,0,1,.39,1l-.24.56"/><line class="cls-1" x1="21.23" y1="21.96" x2="26.12" y2="24.08"/><line class="cls-1" x1="26.8" y1="15.49" x2="30.95" y2="5.94"/></svg>