<svg id="Layer_1" data-name="Layer 1" xmlns="http://www.w3.org/2000/svg" width="36" height="36" viewBox="0 0 36 36"><defs><style>.cls-1,.cls-2{fill:none;stroke:#00c3e5;stroke-miterlimit:10;stroke-width:1.5px;}.cls-1{fill-rule:evenodd;}</style></defs><title>FNB-icon-liteblue-hmd-saving</title><path class="cls-1" d="M17.42,11.45a9,9,0,0,1,5.8,1.64"/><path class="cls-1" d="M23.59,30.49V26.32c3.86-1.59,6.56-4.75,6.8-8.44A3,3,0,0,0,32.91,15M12.41,26.31l1.24.44a15,15,0,0,0,8.7,0l1.24-.44m6.8-8.44a9.52,9.52,0,0,0,0-1.22C29.94,11.43,24.56,7.29,18,7.29a14.38,14.38,0,0,0-2.75.26,5.06,5.06,0,0,0-4.08-2,5.16,5.16,0,0,0-2.49.64.59.59,0,0,0-.31.51.61.61,0,0,0,.31.52,3.58,3.58,0,0,1,1.75,2.2,10,10,0,0,0-4.66,6.19H3.71a.61.61,0,0,0-.62.59V20.9a.61.61,0,0,0,.62.59h3a11.29,11.29,0,0,0,5.73,4.82v4.18"/><circle class="cls-2" cx="10.7" cy="14.98" r="0.76"/></svg>