<svg id="Layer_1" data-name="Layer 1" xmlns="http://www.w3.org/2000/svg" width="36" height="36" viewBox="0 0 36 36"><defs><style>.cls-1{fill:none;stroke:#00c3e5;stroke-miterlimit:10;stroke-width:1.5px;}.cls-2{fill:#00c3e5;}</style></defs><title>FNB-icon-liteblue-hmd-hmd-business-lending</title><rect class="cls-1" x="9.72" y="3.96" width="22.15" height="15.24" rx="2.39" transform="matrix(0.93, -0.37, 0.37, 0.93, -2.82, 8.62)"/><line class="cls-1" x1="9.14" y1="12.09" x2="29.43" y2="3.91"/><line class="cls-1" x1="9.76" y1="14.55" x2="30.05" y2="6.38"/><line class="cls-1" x1="14.23" y1="16.75" x2="25.23" y2="12.32"/><line class="cls-1" x1="15.07" y1="18.82" x2="18.74" y2="17.33"/><line class="cls-1" x1="20.3" y1="16.71" x2="23.06" y2="15.6"/><rect class="cls-1" x="1.74" y="23.61" width="5.11" height="10.94"/><circle class="cls-2" cx="4.29" cy="31.45" r="1.1"/><path class="cls-1" d="M6.85,25.33a8.84,8.84,0,0,1,3.83-.9,8.46,8.46,0,0,1,2.6.42A4.25,4.25,0,0,0,16,24.78l2.53-.91A3.57,3.57,0,0,1,23.09,26h0l-7.35,2.61"/><path class="cls-1" d="M22.62,25.21l3.95-1.4a3.37,3.37,0,0,1,4.32,2.05l.21.63L14,32.59a5.31,5.31,0,0,1-4.79-.47A2.62,2.62,0,0,0,7,32.06"/></svg>