<svg id="Layer_1" data-name="Layer 1" xmlns="http://www.w3.org/2000/svg" width="36" height="36" viewBox="0 0 36 36"><defs><style>.cls-1{fill:none;stroke:#00c3e5;stroke-miterlimit:10;stroke-width:1.5px;}</style></defs><title>FNB-icon-liteblue-hmd-business-checking</title><path class="cls-1" d="M9.88,14.63a2.42,2.42,0,0,1,1.34-3.15L27.46,4.92a2.42,2.42,0,0,1,3.15,1.34l4,9.77a2.42,2.42,0,0,1-1.34,3.15"/><line class="cls-1" x1="12.95" y1="14.85" x2="30.93" y2="7.58"/><line class="cls-1" x1="19.26" y1="14.94" x2="32.2" y2="9.71"/><path class="cls-1" d="M6.07,23.49a1.82,1.82,0,0,0,3.64,0,2,2,0,0,0-1.82-1.82,2,2,0,0,1-1.82-1.82,1.82,1.82,0,0,1,3.64,0"/><line class="cls-1" x1="7.89" y1="25.31" x2="7.89" y2="26.86"/><line class="cls-1" x1="7.89" y1="16.63" x2="7.89" y2="18.03"/><line class="cls-1" x1="11.87" y1="17.82" x2="28.22" y2="17.82"/><line class="cls-1" x1="11.87" y1="21.72" x2="20.93" y2="21.72"/><line class="cls-1" x1="11.87" y1="26.98" x2="17.97" y2="26.98"/><line class="cls-1" x1="23.43" y1="21.72" x2="29.19" y2="21.72"/><polygon class="cls-1" points="30.85 14.94 33.4 14.94 33.4 29.87 2.55 29.87 2.55 14.94 23.71 14.94 30.85 14.94"/></svg>