<svg width="22" height="30" viewBox="0 0 22 30" xmlns="http://www.w3.org/2000/svg" xmlns:xlink="http://www.w3.org/1999/xlink"><defs><path id="a" d="M0 0h22v30H0z"></path></defs><g fill="none" fill-rule="evenodd"><mask id="b" fill="#fff"><use xlink:href="#a"></use></mask><path d="M9.706 19.284c0-.72.574-1.304 1.294-1.304.714 0 1.294.579 1.294 1.304v3.913c0 .72-.574 1.305-1.294 1.305a1.296 1.296 0 0 1-1.294-1.305v-3.913zm5.823-7.545V6.576c0-2.137-1.98-3.967-4.529-3.967-2.55 0-4.53 1.828-4.53 3.967v5.163h9.06zM2.59 27.391h16.823V14.348H2.588V27.39zM3.881 11.74V6.576C3.882 2.944 7.068 0 11 0c3.93 0 7.118 2.947 7.118 6.576v5.163h1.443c1.347 0 2.439 1.17 2.439 2.607v13.047C22 28.833 20.908 30 19.561 30H2.44C1.092 30 0 28.83 0 27.393V14.346c0-1.44 1.09-2.607 2.439-2.607h1.443z" fill="#6A6A6A" mask="url(#b)"></path></g></svg>