<svg width="23" height="31" viewBox="0 0 23 31" xmlns="http://www.w3.org/2000/svg" xmlns:xlink="http://www.w3.org/1999/xlink"><defs><path id="a" d="M0 .288h22.686V30H0z"></path></defs><g fill="none" fill-rule="evenodd"><path d="M6 21c-.552 0-1 .387-1 .865v8.27c0 .478.448.865 1 .865s1-.387 1-.865v-8.27C7 21.387 6.552 21 6 21M17 21c-.552 0-1 .387-1 .865v8.27c0 .478.448.865 1 .865s1-.387 1-.865v-8.27c0-.478-.448-.865-1-.865" fill="#6A6A6A"></path><g><mask id="b" fill="#fff"><use xlink:href="#a"></use></mask><path d="M11.345 17.53l-1.872-2.648h3.744l-1.872 2.648zM5.491 7.605c0-1.17.366-2.259.993-3.163 1.331.668 3.057 1.047 4.861 1.047 1.817 0 3.536-.376 4.86-1.05a5.53 5.53 0 0 1 .995 3.166c0 3-2.401 5.45-5.44 5.656h-.829c-3.04-.207-5.44-2.657-5.44-5.656zm9.536-4.41c-1.032.437-2.328.669-3.686.669-1.356 0-2.644-.238-3.677-.67a5.941 5.941 0 0 1 3.681-1.264c1.396 0 2.676.475 3.682 1.265zm1.29 10.066h-.245c1.707-1.338 2.8-3.382 2.8-5.676 0-4.03-3.37-7.297-7.527-7.297S3.818 3.555 3.818 7.585c0 2.294 1.094 4.338 2.8 5.676h-.24c-3.52 0-6.373 2.763-6.378 6.174v9.706c0 .448.375.81.836.81a.824.824 0 0 0 .837-.81v-9.706c.004-2.515 2.11-4.553 4.704-4.553h1.07l3.209 4.533c.155.22.413.353.69.353a.846.846 0 0 0 .69-.345l3.209-4.54h1.072c2.592.004 4.692 2.04 4.697 4.552v9.754c0 .448.374.811.836.811a.824.824 0 0 0 .836-.81v-9.755c-.004-3.408-2.853-6.17-6.369-6.174z" fill="#6A6A6A" mask="url(#b)"></path></g></g></svg>	