<svg id="Layer_1" data-name="Layer 1" xmlns="http://www.w3.org/2000/svg" viewBox="0 0 54 48"><defs><style>.cls-1{fill:none;stroke:#00c3e5;stroke-miterlimit:10;stroke-width:1.5px;}</style></defs><title>FNB-icon-CardGuard</title><circle class="cls-1" cx="11.68" cy="36.31" r="0.66"/><path class="cls-1" d="M10.13,16.68V14.23a4.07,4.07,0,0,1,4.14-4h30a4.08,4.08,0,0,1,4.14,4v17.5a4.08,4.08,0,0,1-4.14,4H21.69"/><line class="cls-1" x1="10.26" y1="16.68" x2="48.11" y2="16.68"/><line class="cls-1" x1="18.66" y1="20.52" x2="48.11" y2="20.52"/><line class="cls-1" x1="11.68" y1="36.97" x2="11.68" y2="41.13"/><rect class="cls-1" x="1.66" y="30.11" width="20.04" height="16.56" rx="1.75"/><path class="cls-1" d="M20,30.11V25A8.29,8.29,0,0,0,3.39,25v5.15"/><path class="cls-1" d="M17.54,30.11V25.16a5.87,5.87,0,0,0-11.73,0v4.95"/><line class="cls-1" x1="19.96" y1="28.54" x2="37.54" y2="28.54"/><line class="cls-1" x1="21.69" y1="31.86" x2="31.92" y2="31.86"/></svg>