<svg id="Layer_1" data-name="Layer 1" xmlns="http://www.w3.org/2000/svg" viewBox="0 0 54 48"><defs><style>.cls-1{fill:none;stroke:#00c3e5;stroke-miterlimit:10;stroke-width:1.5px;}</style></defs><title>FNB-icon-fingerprint-mobile</title><line class="cls-1" x1="15.82" y1="8.17" x2="36.21" y2="8.17"/><line class="cls-1" x1="15.77" y1="38.55" x2="29.65" y2="38.55"/><circle class="cls-1" cx="25.97" cy="41.5" r="0.66"/><path class="cls-1" d="M48.35,32.65a10.41,10.41,0,0,0-4.21-7.07"/><path class="cls-1" d="M43.53,36.6a18,18,0,0,1-.36,3.31A18.33,18.33,0,0,1,42,43.61"/><path class="cls-1" d="M45.47,41.27a21.19,21.19,0,0,0,.61-5,17.27,17.27,0,0,0-.37-3.89A7.85,7.85,0,0,0,38,26.16c-.22,0-.44,0-.65,0"/><path class="cls-1" d="M40.6,33.43l0,.15a15.94,15.94,0,0,1,.08,4.88,15.19,15.19,0,0,1-.78,3.14,15.44,15.44,0,0,1-1.33,2.78"/><path class="cls-1" d="M30.43,26.91a10.08,10.08,0,0,1,1.83-1.56A10.41,10.41,0,0,1,38,23.6h.43a10.22,10.22,0,0,1,4.06,1s.58.26.93.45"/><path class="cls-1" d="M37.86,33.35a12.75,12.75,0,0,1,.33,2.92c0,.12,0,.23,0,.35a12.82,12.82,0,0,1-.32,2.57A13.21,13.21,0,0,1,37,41.76a12.87,12.87,0,0,1-1.41,2.34,2.8,2.8,0,0,1-2.34.89H18.71a3.39,3.39,0,0,1-3.39-3.39V6.4A3.39,3.39,0,0,1,18.71,3H33.23A3.39,3.39,0,0,1,36.62,6.4V23.88"/><path class="cls-1" d="M43.52,35.65a17.88,17.88,0,0,0-.16-1.95,5.31,5.31,0,0,0-7.27-4.53A5.23,5.23,0,0,0,34,30.74,5.18,5.18,0,0,0,32.83,34a1.7,1.7,0,0,0,0,.22"/><path class="cls-1" d="M33,43.1A10.46,10.46,0,0,0,34.45,41a10.4,10.4,0,0,0,1.12-4.69c0-.62-.17-1.53-.17-2.27a2.64,2.64,0,0,1,1.88-2.52,2.68,2.68,0,0,1,.76-.11,2.63,2.63,0,0,1,2.56,2.06"/><path class="cls-1" d="M30.92,41.58a8.07,8.07,0,0,0,1.44-2.19A7.92,7.92,0,0,0,33,36.27c0-.21,0-.41,0-.62l0-.44"/><path class="cls-1" d="M29.83,27.61a10.41,10.41,0,0,0-2,4.21A10.46,10.46,0,0,0,28,36.76"/><path class="cls-1" d="M29.23,39.52a5.2,5.2,0,0,0,1.14-3.25c0-.78-.17-1.18-.17-2.27a7.82,7.82,0,0,1,2.08-5.32,8.08,8.08,0,0,1,2.1-1.62,8.7,8.7,0,0,1,2-.73"/></svg>