<svg id="Layer_1" data-name="Layer 1" xmlns="http://www.w3.org/2000/svg" viewBox="0 0 54 48"><defs><style>.cls-1{fill:none;stroke:#00c3e5;stroke-miterlimit:10;stroke-width:1.5px;}</style></defs><title>FNB-icon-mobile-deposit</title><path class="cls-1" d="M5,42.86h-.7A3.39,3.39,0,0,1,.9,39.47V4.27A3.39,3.39,0,0,1,4.29.88H18.81A3.39,3.39,0,0,1,22.2,4.27V23.82"/><line class="cls-1" x1="1.4" y1="6.03" x2="21.8" y2="6.03"/><line class="cls-1" x1="1.4" y1="36.42" x2="5.41" y2="36.42"/><path class="cls-1" d="M9.93,34.54a2.16,2.16,0,0,0,4.31,0,2.3,2.3,0,0,0-2.16-2.15,2.31,2.31,0,0,1-2.15-2.15,2.16,2.16,0,1,1,4.31,0"/><line class="cls-1" x1="12.08" y1="36.69" x2="12.08" y2="38.53"/><line class="cls-1" x1="12.08" y1="26.42" x2="12.08" y2="28.08"/><line class="cls-1" x1="16.67" y1="28.26" x2="28.29" y2="28.26"/><line class="cls-1" x1="16.67" y1="34.19" x2="29.27" y2="34.19"/><line class="cls-1" x1="8.79" y1="42.35" x2="23.72" y2="42.35"/><line class="cls-1" x1="26.11" y1="42.35" x2="31.69" y2="42.35"/><polyline class="cls-1" points="48.95 23.82 52.87 23.82 52.87 46.8 5.41 46.8 5.41 23.82 37.97 23.82"/><path class="cls-1" d="M52.66,14.41c-6,13.75-11,23.47-11,23.47l-6.16,3.89-1.36-7.15s3-8.79,9.65-24.06a2.42,2.42,0,0,1,3.48-1.37l4,1.73A2.43,2.43,0,0,1,52.66,14.41Z"/><path class="cls-1" d="M46.23,8.73,46.8,7.4a1.81,1.81,0,0,1,2.37-.93l2.71,1.18A1.79,1.79,0,0,1,52.81,10l-.57,1.33"/><line class="cls-1" x1="34.16" y1="34.62" x2="41.68" y2="37.88"/><line class="cls-1" x1="42.73" y1="24.67" x2="47.93" y2="12.69"/></svg>