<svg id="Layer_1" data-name="Layer 1" xmlns="http://www.w3.org/2000/svg" viewBox="0 0 54 48"><defs><style>.cls-1,.cls-2{fill:none;stroke:#00478c;stroke-miterlimit:10;stroke-width:1.5px;}.cls-1{fill-rule:evenodd;}.cls-3{fill:#00478c;}</style></defs><title>FNB-icon-PDF</title><polyline class="cls-1" points="41.37 36.01 41.37 45.43 11.19 45.43 11.19 36.01"/><polyline class="cls-1" points="11.19 15.42 11.19 2.89 34.9 2.89 38.13 6.12 41.37 9.36 41.37 15.42"/><polyline class="cls-1" points="34.9 2.89 34.9 9.36 41.37 9.36"/><rect class="cls-2" x="8.3" y="15.42" width="35.95" height="20.59"/><path class="cls-3" d="M16.51,28.22h-3.4v4.56H11.62V19.25h4.89a4.3,4.3,0,0,1,3.23,1.08,4.52,4.52,0,0,1,1.05,3.28C20.79,26.69,19.36,28.22,16.51,28.22Zm-3.4-1.32h3.38q2.78,0,2.77-3.29a3.33,3.33,0,0,0-.66-2.29,2.7,2.7,0,0,0-2.11-.74H13.11Z"/><path class="cls-3" d="M26.89,32.78H22.11V19.25h4.78c2.18,0,3.62.88,4.33,2.62a10.42,10.42,0,0,1,.62,3.95c0,3.4-.84,5.55-2.51,6.43A5.23,5.23,0,0,1,26.89,32.78Zm3.42-7q0-3.88-1.72-4.85a3.42,3.42,0,0,0-1.7-.39H23.6V31.45h3.29Q30.31,31.45,30.31,25.82Z"/><path class="cls-3" d="M33.36,32.78V19.25h8v1.33H34.85v5.28h5.51v1.33H34.85v5.59Z"/></svg>