<?xml version="1.0" encoding="UTF-8" standalone="no"?>
<!DOCTYPE svg PUBLIC "-//W3C//DTD SVG 1.1//EN" "http://www.w3.org/Graphics/SVG/1.1/DTD/svg11.dtd">
<svg version="1.1" xmlns="http://www.w3.org/2000/svg" xmlns:xlink="http://www.w3.org/1999/xlink" preserveAspectRatio="xMidYMid meet" viewBox="0 0 640 640" width="100" height="100"><defs><path d="M479.1 211.85C479.1 290.75 410.46 354.8 325.91 354.8C241.35 354.8 172.71 290.75 172.71 211.85C172.71 132.96 241.35 68.91 325.91 68.91C410.46 68.91 479.1 132.96 479.1 211.85Z" id="b84KfhhpbU"></path><path d="" id="bgoCafEuP"></path><path d="" id="l2L1HsyJWZ"></path><path d="M353.04 183.19L413.72 190.98L369.81 228.79L380.17 282.17L325.91 256.97L271.64 282.17L282.01 228.79L238.1 190.98L298.78 183.19L325.91 134.62L353.04 183.19Z" id="ez66kAjpr"></path><path d="M236.5 319.8L236.5 512.38L325.91 448.81L417.23 512.38L417.23 319.8L440.49 319.8L440.49 560.56L325.91 480.59L211.32 560.56L211.32 319.8L236.5 319.8Z" id="d40fkwuGfM"></path></defs><g><g><g><g><use xlink:href="#b84KfhhpbU" opacity="1" fill-opacity="0" stroke="#00387a" stroke-width="23" stroke-opacity="1"></use></g></g><g><g><use xlink:href="#bgoCafEuP" opacity="1" fill-opacity="0" stroke="#78a41d" stroke-width="1" stroke-opacity="1"></use></g></g><g><g><use xlink:href="#l2L1HsyJWZ" opacity="1" fill-opacity="0" stroke="#78a41d" stroke-width="1" stroke-opacity="1"></use></g></g><g><use xlink:href="#ez66kAjpr" opacity="1" fill="#00387a" fill-opacity="1"></use></g><g><use xlink:href="#d40fkwuGfM" opacity="1" fill="#00387a" fill-opacity="1"></use></g></g></g></svg>