<?xml version="1.0" encoding="utf-8"?>
<!-- Generator: Adobe Illustrator 28.0.0, SVG Export Plug-In . SVG Version: 6.00 Build 0)  -->
<svg version="1.1" id="Layer_1" xmlns="http://www.w3.org/2000/svg" xmlns:xlink="http://www.w3.org/1999/xlink" x="0px" y="0px"
	 viewBox="0 0 1000 1000" style="enable-background:new 0 0 1000 1000;" xml:space="preserve">
<style type="text/css">
	.st0{fill:none;stroke:#113973;stroke-width:30;stroke-miterlimit:10;}
	.st1{fill:#113982;stroke:#113973;stroke-width:30;stroke-linecap:round;stroke-miterlimit:10;}
	.st2{fill:#113991;stroke:#113973;stroke-width:30;stroke-linecap:round;stroke-linejoin:round;stroke-miterlimit:10;}
	.st3{fill:none;stroke:#113973;stroke-width:30;stroke-linecap:round;stroke-linejoin:round;stroke-miterlimit:10;}
</style>
<path class="st0" d="M98.3,17"/>
<path class="st0" d="M116.26,826.52"/>
<path class="st0" d="M209.49,126.56H906.8c2.88,0,5.21,2.16,5.2,4.82l-2.39,845.83c-0.01,2.65-2.33,4.79-5.2,4.79H207.1
	c-2.88,0-5.21-2.16-5.2-4.82l2.39-845.83C204.3,128.7,206.63,126.56,209.49,126.56z"/>
<line class="st1" x1="794.66" y1="20.32" x2="91.71" y2="22.53"/>
<path class="st2" d="M91,878.28V25.05V878.28z"/>
<path class="st0" d="M155.81,68.03"/>
<line class="st1" x1="852.16" y1="71.35" x2="149.22" y2="73.56"/>
<path class="st2" d="M148.51,929.3V76.08V929.3z"/>
<line class="st3" x1="418.79" y1="188.53" x2="277.33" y2="188.53"/>
<line class="st3" x1="277.33" y1="370.02" x2="277.33" y2="188.53"/>
<line class="st3" x1="485.7" y1="279.28" x2="485.7" y2="370.02"/>
<line class="st3" x1="277.33" y1="370.02" x2="485.7" y2="370.02"/>
<line class="st3" x1="419.56" y1="464.09" x2="279.72" y2="464.09"/>
<line class="st3" x1="279.72" y1="637.83" x2="279.72" y2="464.09"/>
<line class="st3" x1="485.7" y1="550.96" x2="485.7" y2="637.83"/>
<line class="st3" x1="279.72" y1="637.83" x2="485.7" y2="637.83"/>
<line class="st3" x1="418.79" y1="735.22" x2="277.33" y2="735.22"/>
<line class="st3" x1="277.33" y1="917.81" x2="277.33" y2="735.22"/>
<line class="st3" x1="485.7" y1="826.52" x2="485.7" y2="917.81"/>
<line class="st3" x1="277.33" y1="917.81" x2="485.7" y2="917.81"/>
<line class="st3" x1="557.55" y1="188.53" x2="842.56" y2="188.53"/>
<line class="st3" x1="557.55" y1="279.28" x2="737.18" y2="279.28"/>
<line class="st3" x1="557.55" y1="370.02" x2="805.43" y2="370.02"/>
<line class="st3" x1="557.55" y1="462.98" x2="842.56" y2="462.98"/>
<line class="st3" x1="557.55" y1="553.73" x2="737.18" y2="553.73"/>
<line class="st3" x1="557.55" y1="644.47" x2="805.43" y2="644.47"/>
<line class="st3" x1="557.55" y1="735.22" x2="842.56" y2="735.22"/>
<line class="st3" x1="557.55" y1="825.96" x2="737.18" y2="825.96"/>
<line class="st3" x1="557.55" y1="916.71" x2="805.43" y2="916.71"/>
<line class="st3" x1="368.34" y1="309.16" x2="326.43" y2="263.78"/>
<line class="st3" x1="485.7" y1="186.32" x2="368.34" y2="309.16"/>
<line class="st3" x1="368.49" y1="587.13" x2="326.58" y2="541.75"/>
<line class="st3" x1="485.85" y1="464.29" x2="368.49" y2="587.13"/>
<line class="st3" x1="368.49" y1="858.41" x2="326.58" y2="813.04"/>
<line class="st3" x1="485.85" y1="735.57" x2="368.49" y2="858.41"/>
</svg>
