<?xml version="1.0" encoding="utf-8"?>
<!-- Generator: Adobe Illustrator 23.0.3, SVG Export Plug-In . SVG Version: 6.00 Build 0)  -->
<svg version="1.1" id="Layer_1" xmlns="http://www.w3.org/2000/svg" xmlns:xlink="http://www.w3.org/1999/xlink" x="0px" y="0px"
	 viewBox="0 0 40 40" style="enable-background:new 0 0 40 40;" xml:space="preserve">
<style type="text/css">
	.st0{fill:none;stroke:#000000;stroke-width:1.5;stroke-miterlimit:10;}
	.st1{fill-rule:evenodd;clip-rule:evenodd;}
	.st2{clip-path:url(#SVGID_2_);}
	.st3{fill:none;stroke:#00478C;stroke-width:1.5;stroke-miterlimit:10;}
	.st4{clip-path:url(#SVGID_4_);fill:#A80D32;}
	.st5{fill:#FFFFFF;stroke:#000000;stroke-width:1.5;stroke-miterlimit:10;}
	.st6{fill-rule:evenodd;clip-rule:evenodd;fill:#FFFFFF;}
	.st7{fill:#00478C;}
	.st8{clip-path:url(#SVGID_8_);fill:#A80D32;}
	.st9{fill:url(#SVGID_11_);}
	.st10{fill:url(#SVGID_12_);}
	.st11{fill:url(#SVGID_13_);}
	.st12{fill:url(#SVGID_14_);}
	.st13{fill:url(#SVGID_15_);}
	.st14{fill:url(#SVGID_16_);}
	.st15{fill:none;stroke:#FFFFFF;stroke-width:1.25;stroke-miterlimit:10;}
	.st16{fill:url(#SVGID_17_);}
	.st17{fill:url(#SVGID_18_);}
	.st18{fill:url(#SVGID_19_);}
	.st19{fill:url(#SVGID_20_);}
	.st20{fill:url(#SVGID_21_);}
	.st21{fill:url(#SVGID_22_);}
	.st22{fill-rule:evenodd;clip-rule:evenodd;fill:#00478C;}
	.st23{fill:none;stroke:#00478C;stroke-width:1.5;stroke-linecap:square;stroke-miterlimit:10;}
	.st24{fill-rule:evenodd;clip-rule:evenodd;fill:none;stroke:#00478C;stroke-width:1.5;stroke-miterlimit:10;}
	.st25{fill-rule:evenodd;clip-rule:evenodd;fill:none;stroke:#000000;stroke-width:1.5;stroke-miterlimit:10;}
	.st26{fill:none;stroke:#00478C;stroke-width:1.5;stroke-linecap:round;stroke-miterlimit:10;}
	.st27{fill:none;stroke:#000000;stroke-width:1.5;stroke-linecap:round;stroke-miterlimit:10;}
</style>
<linearGradient id="SVGID_2_" gradientUnits="userSpaceOnUse" x1="39.765" y1="8.5994" x2="4.1226" y2="29.1582">
	<stop  offset="0" style="stop-color:#00C3E5"/>
	<stop  offset="0.0251" style="stop-color:#00BFE2"/>
	<stop  offset="0.4884" style="stop-color:#007FB4"/>
	<stop  offset="0.8258" style="stop-color:#005697"/>
	<stop  offset="1" style="stop-color:#00478C"/>
</linearGradient>
<circle style="fill:url(#SVGID_2_);" cx="20" cy="20" r="20"/>
<g>
	<path class="st15" d="M25.2,35.62h-9.75c-1.66,0-3-1.34-3-3v-24c0-1.66,1.34-3,3-3h9.75c1.66,0,3,1.34,3,3v24
		C28.2,34.27,26.85,35.62,25.2,35.62z"/>
	<line class="st15" x1="12.92" y1="9.43" x2="28" y2="9.43"/>
	<line class="st15" x1="12.92" y1="30.85" x2="28" y2="30.85"/>
	<path class="st15" d="M18.27,22.47c0,1.13,0.92,2.05,2.05,2.05c1.13,0,2.05-0.92,2.05-2.05c0-1.13-0.93-1.86-2.05-2.05
		c-1.12-0.19-2.05-0.92-2.05-2.05s0.92-2.05,2.05-2.05c1.13,0,2.05,0.92,2.05,2.05"/>
	<g>
		<line class="st15" x1="20.32" y1="24.43" x2="20.32" y2="26.62"/>
		<line class="st15" x1="20.32" y1="14.23" x2="20.32" y2="16.42"/>
	</g>
</g>
</svg>
