<?xml version="1.0" encoding="utf-8"?>
<!-- Generator: Adobe Illustrator 23.0.3, SVG Export Plug-In . SVG Version: 6.00 Build 0)  -->
<svg version="1.1" id="Layer_1" xmlns="http://www.w3.org/2000/svg" xmlns:xlink="http://www.w3.org/1999/xlink" x="0px" y="0px"
	 viewBox="0 0 54 48" style="enable-background:new 0 0 54 48;" xml:space="preserve">
<style type="text/css">
	.st0{fill:none;stroke:#000000;stroke-width:1.5;stroke-miterlimit:10;}
	.st1{fill-rule:evenodd;clip-rule:evenodd;}
	.st2{clip-path:url(#SVGID_2_);}
	.st3{fill:none;stroke:#00478C;stroke-width:1.5;stroke-miterlimit:10;}
	.st4{clip-path:url(#SVGID_4_);fill:#A80D32;}
	.st5{fill:#FFFFFF;stroke:#000000;stroke-width:1.5;stroke-miterlimit:10;}
	.st6{fill-rule:evenodd;clip-rule:evenodd;fill:#FFFFFF;}
	.st7{fill:#00478C;}
	.st8{clip-path:url(#SVGID_8_);fill:#A80D32;}
	.st9{fill:url(#SVGID_11_);}
	.st10{fill:url(#SVGID_12_);}
	.st11{fill:url(#SVGID_13_);}
	.st12{fill:url(#SVGID_14_);}
	.st13{fill:url(#SVGID_15_);}
	.st14{fill:url(#SVGID_16_);}
	.st15{fill:none;stroke:#FFFFFF;stroke-width:1.25;stroke-miterlimit:10;}
	.st16{fill:url(#SVGID_17_);}
	.st17{fill:url(#SVGID_18_);}
	.st18{fill:url(#SVGID_19_);}
	.st19{fill:url(#SVGID_20_);}
	.st20{fill:url(#SVGID_21_);}
	.st21{fill:url(#SVGID_22_);}
	.st22{fill-rule:evenodd;clip-rule:evenodd;fill:#00478C;}
	.st23{fill:none;stroke:#00478C;stroke-width:1.5;stroke-linecap:square;stroke-miterlimit:10;}
	.st24{fill-rule:evenodd;clip-rule:evenodd;fill:none;stroke:#00478C;stroke-width:1.5;stroke-miterlimit:10;}
	.st25{fill-rule:evenodd;clip-rule:evenodd;fill:none;stroke:#000000;stroke-width:1.5;stroke-miterlimit:10;}
	.st26{fill:none;stroke:#00478C;stroke-width:1.5;stroke-linecap:round;stroke-miterlimit:10;}
	.st27{fill:none;stroke:#000000;stroke-width:1.5;stroke-linecap:round;stroke-miterlimit:10;}
</style>
<polyline class="st3" points="45.1,42.76 45.1,30.88 47.33,30.88 47.33,27.81 6.67,27.81 6.67,30.88 8.9,30.88 8.9,42.76 "/>
<g>
	<g>
		<path class="st3" d="M10.01,28.26V22.4c0-2.46,1.99-4.45,4.45-4.45h5.84c2.46,0,4.45,1.99,4.45,4.45v5.86"/>
		<circle class="st3" cx="17.38" cy="13.45" r="4.49"/>
		<polyline class="st3" points="15.06,17.94 17.42,21 19.7,18.02 		"/>
		<g>
			<line class="st3" x1="13.59" y1="22.75" x2="13.59" y2="28.38"/>
			<line class="st3" x1="21.18" y1="22.75" x2="21.18" y2="28.38"/>
		</g>
	</g>
	<g>
		<rect x="30.6" y="12.82" class="st3" width="13.4" height="9.53"/>
		<g>
			<line class="st3" x1="36" y1="25.56" x2="36" y2="22.35"/>
			<line class="st3" x1="38.59" y1="22.35" x2="38.59" y2="25.56"/>
		</g>
		<polyline class="st3" points="41.08,27.81 40.27,25.56 37.3,25.56 34.33,25.56 33.51,27.81 		"/>
	</g>
</g>
</svg>
