<?xml version="1.0" encoding="utf-8"?>
<!-- Generator: Adobe Illustrator 23.0.3, SVG Export Plug-In . SVG Version: 6.00 Build 0)  -->
<svg version="1.1" id="Layer_1" xmlns="http://www.w3.org/2000/svg" xmlns:xlink="http://www.w3.org/1999/xlink" x="0px" y="0px"
	 viewBox="0 0 54 48" style="enable-background:new 0 0 54 48;" xml:space="preserve">
<style type="text/css">
	.st0{fill:none;stroke:#000000;stroke-width:1.5;stroke-miterlimit:10;}
	.st1{fill-rule:evenodd;clip-rule:evenodd;}
	.st2{clip-path:url(#SVGID_2_);}
	.st3{fill:none;stroke:#00478C;stroke-width:1.5;stroke-miterlimit:10;}
	.st4{clip-path:url(#SVGID_4_);fill:#A80D32;}
	.st5{fill:#FFFFFF;stroke:#000000;stroke-width:1.5;stroke-miterlimit:10;}
	.st6{fill-rule:evenodd;clip-rule:evenodd;fill:#FFFFFF;}
	.st7{fill:#00478C;}
	.st8{clip-path:url(#SVGID_8_);fill:#A80D32;}
	.st9{fill:url(#SVGID_11_);}
	.st10{fill:url(#SVGID_12_);}
	.st11{fill:url(#SVGID_13_);}
	.st12{fill:url(#SVGID_14_);}
	.st13{fill:url(#SVGID_15_);}
	.st14{fill:url(#SVGID_16_);}
	.st15{fill:none;stroke:#FFFFFF;stroke-width:1.25;stroke-miterlimit:10;}
	.st16{fill:url(#SVGID_17_);}
	.st17{fill:url(#SVGID_18_);}
	.st18{fill:url(#SVGID_19_);}
	.st19{fill:url(#SVGID_20_);}
	.st20{fill:url(#SVGID_21_);}
	.st21{fill:url(#SVGID_22_);}
	.st22{fill-rule:evenodd;clip-rule:evenodd;fill:#00478C;}
	.st23{fill:none;stroke:#00478C;stroke-width:1.5;stroke-linecap:square;stroke-miterlimit:10;}
	.st24{fill-rule:evenodd;clip-rule:evenodd;fill:none;stroke:#00478C;stroke-width:1.5;stroke-miterlimit:10;}
	.st25{fill-rule:evenodd;clip-rule:evenodd;fill:none;stroke:#000000;stroke-width:1.5;stroke-miterlimit:10;}
	.st26{fill:none;stroke:#00478C;stroke-width:1.5;stroke-linecap:round;stroke-miterlimit:10;}
	.st27{fill:none;stroke:#000000;stroke-width:1.5;stroke-linecap:round;stroke-miterlimit:10;}
</style>
<g>
	<polygon class="st3" points="27,7.34 4.48,17.54 27,27.75 49.52,17.54 	"/>
	<path class="st3" d="M40.09,32.67c0.53-0.63,0.82-1.3,0.82-2v-9.21"/>
	<path class="st3" d="M13.09,21.45v9.21c0,3.27,6.23,5.92,13.91,5.92c3.28,0,6.29-0.48,8.67-1.29"/>
	<polyline class="st3" points="27,17.35 38.03,22.75 38.03,27.08 	"/>
	<path class="st3" d="M40.07,29.12c0-1.12-0.91-2.04-2.04-2.04c-1.12,0-2.04,0.91-2.04,2.04c0,0,0.06,6.67-1.46,14.9
		c1.23,0.55,2.02,0.72,2.88,0.62l0.61-5.04l-0.03,4.95c2.73-0.48,3.94-1.92,3.94-1.92S40.07,35.49,40.07,29.12z"/>
	<line class="st3" x1="36.36" y1="30.31" x2="39.9" y2="30.31"/>
</g>
</svg>
