<?xml version="1.0" encoding="utf-8"?>
<!-- Generator: Adobe Illustrator 23.0.3, SVG Export Plug-In . SVG Version: 6.00 Build 0)  -->
<svg version="1.1" id="Layer_1" xmlns="http://www.w3.org/2000/svg" xmlns:xlink="http://www.w3.org/1999/xlink" x="0px" y="0px"
	 viewBox="0 0 54 48" style="enable-background:new 0 0 54 48;" xml:space="preserve">
<style type="text/css">
	.st0{fill:none;stroke:#000000;stroke-width:1.5;stroke-miterlimit:10;}
	.st1{fill-rule:evenodd;clip-rule:evenodd;}
	.st2{clip-path:url(#SVGID_2_);}
	.st3{fill:none;stroke:#00478C;stroke-width:1.5;stroke-miterlimit:10;}
	.st4{clip-path:url(#SVGID_4_);fill:#A80D32;}
	.st5{fill:#FFFFFF;stroke:#000000;stroke-width:1.5;stroke-miterlimit:10;}
	.st6{fill-rule:evenodd;clip-rule:evenodd;fill:#FFFFFF;}
	.st7{fill:#00478C;}
	.st8{clip-path:url(#SVGID_8_);fill:#A80D32;}
	.st9{fill:url(#SVGID_11_);}
	.st10{fill:url(#SVGID_12_);}
	.st11{fill:url(#SVGID_13_);}
	.st12{fill:url(#SVGID_14_);}
	.st13{fill:url(#SVGID_15_);}
	.st14{fill:url(#SVGID_16_);}
	.st15{fill:none;stroke:#FFFFFF;stroke-width:1.25;stroke-miterlimit:10;}
	.st16{fill:url(#SVGID_17_);}
	.st17{fill:url(#SVGID_18_);}
	.st18{fill:url(#SVGID_19_);}
	.st19{fill:url(#SVGID_20_);}
	.st20{fill:url(#SVGID_21_);}
	.st21{fill:url(#SVGID_22_);}
	.st22{fill-rule:evenodd;clip-rule:evenodd;fill:#00478C;}
	.st23{fill:none;stroke:#00478C;stroke-width:1.5;stroke-linecap:square;stroke-miterlimit:10;}
	.st24{fill-rule:evenodd;clip-rule:evenodd;fill:none;stroke:#00478C;stroke-width:1.5;stroke-miterlimit:10;}
	.st25{fill-rule:evenodd;clip-rule:evenodd;fill:none;stroke:#000000;stroke-width:1.5;stroke-miterlimit:10;}
	.st26{fill:none;stroke:#00478C;stroke-width:1.5;stroke-linecap:round;stroke-miterlimit:10;}
	.st27{fill:none;stroke:#000000;stroke-width:1.5;stroke-linecap:round;stroke-miterlimit:10;}
</style>
<g>
	<path class="st3" d="M16.24,11.55V6.71c0-2.12,1.72-3.85,3.85-3.85h13.82c2.12,0,3.85,1.72,3.85,3.85v4.84"/>
	<path class="st3" d="M47.96,45.14H6.04c-2.21,0-4-1.79-4-4V15.55c0-2.21,1.79-4,4-4h41.92c2.21,0,4,1.79,4,4v25.58
		C51.97,43.35,50.17,45.14,47.96,45.14z"/>
	<path class="st3" d="M23.78,30.04H10.07c-4.44,0-8.04-3.6-8.04-8.04"/>
	<path class="st3" d="M51.97,22c0,4.44-3.6,8.04-8.04,8.04H30.22"/>
	<polyline class="st3" points="30.22,30.04 30.22,35.36 23.78,35.36 23.78,25.21 30.22,25.21 30.22,30.04 	"/>
</g>
</svg>
