<svg id="Layer_1" data-name="Layer 1" xmlns="http://www.w3.org/2000/svg" viewBox="0 0 54 48"><defs><style>.cls-1{fill:none;stroke:#fff;stroke-miterlimit:10;stroke-width:1.5px;}</style></defs><title>FNB-icon-factory</title><polyline class="cls-1" points="14.69 30.61 13.25 10.62 8.43 10.62 6.99 30.61"/><polygon class="cls-1" points="17.81 45.09 16.42 31.29 5.26 31.29 3.87 45.09 17.81 45.09"/><polyline class="cls-1" points="8.76 45.09 8.76 39.15 13.09 39.15 13.09 45.09"/><polyline class="cls-1" points="24.52 30.61 23.08 10.62 18.26 10.62 16.82 30.61"/><polyline class="cls-1" points="17.81 45.09 27.64 45.09 26.25 31.29 16.42 31.29"/><polyline class="cls-1" points="26.25 31.29 37.51 26.38 37.51 45.09 27.88 45.09"/><rect class="cls-1" x="30.09" y="33.47" width="3.84" height="3.84"/><polyline class="cls-1" points="37.51 31.29 48.77 26.38 48.77 45.09 37.51 45.09"/><rect class="cls-1" x="41.35" y="33.47" width="3.84" height="3.84"/><line class="cls-1" x1="22.17" y1="39.55" x2="26.88" y2="39.55"/><line class="cls-1" x1="21.45" y1="34.63" x2="26.16" y2="34.63"/><path class="cls-1" d="M10.77,7.94s1.42-3.14,4.62-2.21,4.68-.48,5.11-2.17"/><path class="cls-1" d="M20.67,7.94S22.53,4.6,26,5.73c2.62.86,4.34.29,5.67-1"/></svg>