<svg Viewbox="0 0 34 34" width="34" height="34" xmlns="http://www.w3.org/2000/svg"><path d="M2.278 31.862c.198-1.15.576-2.286 1.112-3.336.894-1.749 2.253-3.334 3.934-4.585.883-.659 1.88-1.231 2.961-1.7a18.177 18.177 0 0 1 1.652-.62c.187-.06.387-.107.586-.154.382-.09.813-.194 1.223-.378.643-.29 1.116-.942 1.266-1.745.216-1.164-.255-1.83-.689-2.184-.21-.172-.425-.286-.598-.377-.075-.04-.152-.078-.222-.125a7.113 7.113 0 0 1-1.135-.97c-1.398-1.475-2.2-3.565-2.2-5.734 0-4.31 3.064-7.816 6.831-7.816 3.768 0 6.833 3.506 6.833 7.816a8.76 8.76 0 0 1-.434 2.74 8.089 8.089 0 0 1-1.485 2.676 7.29 7.29 0 0 1-1.05 1.015 8.995 8.995 0 0 1-.6.422c-.04.026-.082.047-.124.069-.218.114-.583.305-.844.71-.52.807-.465 1.984.13 2.801.203.28.473.504.8.665.329.163.663.238.931.3.081.019.161.036.238.056.514.138 1.022.302 1.511.486.985.372 1.924.836 2.792 1.38 1.77 1.11 3.266 2.572 4.323 4.226a11.767 11.767 0 0 1 1.647 4.05l.048.312H2.278zm31.045-2.4a14.134 14.134 0 0 0-1.497-3.112c-1.227-1.92-2.952-3.61-4.99-4.886a17.763 17.763 0 0 0-3.174-1.57 18.376 18.376 0 0 0-1.711-.55c-.103-.028-.21-.053-.318-.078-.174-.04-.355-.08-.475-.135a.571.571 0 0 1-.074-.336c.017-.01.033-.017.05-.026.102-.054.204-.108.303-.173.258-.169.51-.341.752-.531.492-.387.95-.83 1.36-1.315a10.103 10.103 0 0 0 1.885-3.39c.36-1.09.54-2.236.54-3.406C25.975 4.465 21.95 0 17 0c-4.948 0-8.974 4.466-8.974 9.954 0 2.711 1.016 5.337 2.787 7.204.451.476.95.902 1.48 1.265.137.093.282.172.427.25.075.039.15.08.204.113a.971.971 0 0 1-.02.167c-.02.115-.08.193-.044.188-.222.1-.52.17-.834.247-.255.06-.508.121-.748.198-.644.208-1.266.441-1.847.693a17.006 17.006 0 0 0-3.39 1.948c-1.941 1.446-3.519 3.288-4.56 5.328A13.805 13.805 0 0 0 .002 32.86 1.069 1.069 0 0 0 1.071 34h31.856c.32 0 .625-.143.828-.389.234-.284.402-.488.014-2.468a13.558 13.558 0 0 0-.446-1.681z" fill="#009CD6" fill-rule="evenodd"/></svg>
