<svg width="30" height="30" viewBox="0 0 30 30" fill="none" xmlns="http://www.w3.org/2000/svg">
<path fill-rule="evenodd" clip-rule="evenodd" d="M11.5292 20.6112C6.51923 20.6112 2.44385 16.5358 2.44385 11.5258C2.44385 11.062 2.82116 10.6847 3.285 10.6847C3.75 10.6847 4.12731 11.062 4.12731 11.5258C4.12731 15.6081 7.44692 18.9289 11.5292 18.9289C15.6092 18.9289 18.9288 15.6081 18.9288 11.5258C18.9288 7.44466 15.6092 4.12389 11.5292 4.12389C9.63346 4.12389 7.83 4.84158 6.45 6.14312C6.29308 6.29081 6.08885 6.37274 5.87308 6.37274C5.64116 6.37274 5.41846 6.27697 5.25923 6.10851C4.94192 5.77043 4.95808 5.2362 5.295 4.91774C6.98654 3.32081 9.20077 2.44043 11.5292 2.44043C16.5381 2.44043 20.6123 6.51697 20.6123 11.5258C20.6123 16.5358 16.5381 20.6112 11.5292 20.6112" fill="white"/>
<path fill-rule="evenodd" clip-rule="evenodd" d="M11.5292 1.68346C6.10038 1.68346 1.68462 6.09923 1.68462 11.5258C1.68462 16.9535 6.10038 21.3692 11.5292 21.3692C16.9569 21.3692 21.3715 16.9535 21.3715 11.5258C21.3715 6.09923 16.9569 1.68346 11.5292 1.68346V1.68346ZM25.2646 27.1269L27.1292 25.2635L22.2138 20.3481L20.3504 22.2127L25.2646 27.1269ZM25.2658 29.1565C25.0419 29.1565 24.8308 29.07 24.6727 28.9108L18.5665 22.8058C18.2388 22.4781 18.2388 21.945 18.5665 21.6173L19.4977 20.685L19.0592 20.2454C16.965 22.0569 14.2996 23.0515 11.5292 23.0515C5.17269 23.0515 0 17.8812 0 11.5258C0 5.17038 5.17269 0 11.5292 0C17.8846 0 23.055 5.17038 23.055 11.5258C23.055 14.2962 22.0604 16.9615 20.2488 19.0558L20.6873 19.4942L21.6173 18.5631C21.7742 18.4073 21.9831 18.3196 22.2023 18.3173C22.4388 18.3173 22.65 18.405 22.8081 18.5631L28.9142 24.6669C29.2442 24.9992 29.2431 25.5323 28.9142 25.8612L25.8612 28.9108C25.7008 29.07 25.4908 29.1565 25.2658 29.1565V29.1565Z" fill="white"/>
</svg>
