<svg id="Layer_1" title="Search FNB" data-name="Layer 1" xmlns="http://www.w3.org/2000/svg" viewBox="0 0 34 35">
	<defs>
		<style>
			.cls-1 {
				fill: #00387a;
				fill-rule: evenodd
			}
		</style>
	</defs>
	<g id="Symbols">
		<g id="Group">
			<g id="search-icon">
				<path id="Fill-4" class="cls-1" d="M13.78 23.61a9.09 9.09 0 0 1-9.09-9.08.85.85 0 1 1 1.69 0A7.4 7.4 0 1 0 8.7 9.14a.85.85 0 0 1-1.19 0 .85.85 0 0 1 0-1.19 9.08 9.08 0 1 1 6.24 15.69"/>
				<path class="cls-1" d="M13.78 4.68a9.85 9.85 0 1 0 9.84 9.85 9.86 9.86 0 0 0-9.84-9.85zm13.73 25.45l1.87-1.87-4.92-4.91-1.86 1.86zm0 2a.84.84 0 0 1-.6-.25l-6.1-6.1a.84.84 0 0 1 0-1.19l.93-.94-.44-.43a11.52 11.52 0 1 1 1.19-1.19l.44.43.93-.93a.83.83 0 0 1 .58-.24.84.84 0 0 1 .61.24l6.1 6.11a.84.84 0 0 1 0 1.19l-3.05 3.05a.83.83 0 0 1-.59.25z"/>
			</g>
		</g>
	</g>
</svg>