<?xml version="1.0" encoding="utf-8"?>
<!-- Generator: Adobe Illustrator 23.0.3, SVG Export Plug-In . SVG Version: 6.00 Build 0)  -->
<svg version="1.1" id="Layer_1" xmlns="http://www.w3.org/2000/svg" xmlns:xlink="http://www.w3.org/1999/xlink" x="0px" y="0px"
	 viewBox="0 0 391.08 39" style="enable-background:new 0 0 391.08 39;" xml:space="preserve">
<style type="text/css">
	.st0{fill:#FFFFFF;}
	.st1{fill:#091C5A;}
	.st2{fill:#A5001D;}
	.st3{fill:none;stroke:#091C5A;stroke-width:0.6151;stroke-miterlimit:1;}
</style>
<rect x="0" class="st0" width="36.72" height="20.78"/>
<path class="st1" d="M109.27,13.48l-0.49-3.49h-14.7c-0.13,0-0.13,0.23,0,0.23c0.45,0,1.39,1.1,1.39,2.65v20.09
	c0,1.55-0.94,2.65-1.39,2.65c-0.13,0-0.13,0.22,0,0.22h6.27c0.13,0,0.13-0.22,0-0.22c-0.45,0-1.39-1.1-1.39-2.65v-9.92h4.43
	c1.55,0,2.65,0.94,2.65,1.39c0,0.13,0.23,0.13,0.23,0v-4.91c0-0.13-0.23-0.13-0.23,0c0,0.45-1.1,1.39-2.65,1.39h-4.43v-8.24
	c0.78-0.23,2.17-0.42,3.59-0.42c3.1,0,5.4,0.42,6.4,1.23C109.11,13.61,109.3,13.7,109.27,13.48 M114.08,11.9
	c0-1.16-1-2.17-2.17-2.17c-1.16,0-2.16,1-2.16,2.17c0,1.16,1,2.1,2.16,2.1C113.07,13.99,114.08,13.06,114.08,11.9 M109.07,35.83
	h6.27c0.13,0,0.13-0.22,0-0.22c-0.45,0-1.39-1.1-1.39-2.65V16.71h-4.88c-0.13,0-0.13,0.23,0,0.23c0.45,0,1.39,1.1,1.39,2.65v13.37
	c0,1.55-0.94,2.65-1.39,2.65C108.94,35.61,108.94,35.83,109.07,35.83 M127.51,20c0.16,0.1,0.23,0.03,0.23-0.1v-3.46
	c-2.39-0.23-4.94,1.68-5.65,3.1v-2.84h-4.88c-0.13,0-0.13,0.23,0,0.23c0.45,0,1.39,1.1,1.39,2.65v13.37c0,1.55-0.94,2.65-1.39,2.65
	c-0.13,0-0.13,0.22,0,0.22h6.27c0.13,0,0.13-0.22,0-0.22c-0.45,0-1.39-1.1-1.39-2.65v-8.75c0-2.17,1.42-4.65,3.75-4.65
	C126.32,19.55,126.83,19.55,127.51,20 M143.4,30.5c0.29-3.84-2.91-4.72-6.01-5.98c-2.36-0.97-4.88-1.68-4.78-3.71
	c0.06-1.78,2.07-2.36,3.97-2.36c2,0,3.91,1.07,4.75,1.62c0.19,0.13,0.26,0.03,0.26-0.19v-2.71c-1.07-0.42-3.3-0.94-5.39-0.94
	c-3.94,0-7.56,1.87-7.56,5.52c0,2.75,2.52,3.91,5.04,4.91c2.52,1.04,6.43,2.04,6.17,4.2c-0.32,2.36-2.78,3.1-5.07,3.1
	c-2.68,0-5.72-1.49-6.82-2.26c-0.13-0.06-0.49-0.26-0.36,0.19l0.68,3.04c0.84,0.45,4.26,1.39,6.36,1.39
	C138.82,36.32,143.14,34.6,143.4,30.5 M153.61,18.68l0.58-1.97h-4.39v-4.42h-0.2c-1.84,2.16-3.71,4.16-5.84,6.1v0.29h2.45v12.47
	c0,3.39,2.2,5.17,4.91,5.17c0.68,0,1.23-0.1,2.04-0.26l0.94-2.36c0.03-0.1,0.1-0.42-0.19-0.26c-2.42,1.2-4.2,0.36-4.2-3.23V18.68
	H153.61z M187.82,10.22c0.13,0,0.13-0.23,0-0.23h-5.23c-0.13,0-0.13,0.23,0,0.23c0.45,0,1.39,1.1,1.39,2.65v15.51L168.34,9.99h-5.1
	c-0.13,0-0.13,0.23,0,0.23c0.45,0,1.39,1.1,1.39,2.65v20.09c0,1.55-0.94,2.65-1.39,2.65c-0.13,0-0.13,0.22,0,0.22h5.23
	c0.13,0,0.13-0.22,0-0.22c-0.45,0-1.39-1.1-1.39-2.65V13.77l18.87,22.1l0.48,0.45V12.86C186.43,11.31,187.37,10.22,187.82,10.22
	 M203.14,28.98c0,2.75-3.01,5.14-5.88,5.14c-1.87,0-3.65-1.45-3.65-3.68c0-2.68,1.68-3.26,3.72-3.81c2.39-0.65,3.55-0.74,5.82-1.55
	V28.98z M208.98,34.09c-0.19,0.13-2.36,0.32-2.36-1.84V23.1c0-4.59-2.23-6.88-7.59-6.88c-3.84,0-6.11,0.71-6.65,0.84l-0.97,4.07
	c-0.03,0.13,0.06,0.23,0.16,0.1c0.45-0.49,2.52-2.88,6.82-2.88c2.52,0,4.62,0.68,4.62,2.84c0,2.71-3.78,2.81-6.72,3.33
	c-3.49,0.61-6.59,2.2-6.59,6.1c0,3.33,3.52,5.69,6.94,5.69c4.33,0,5.88-1.94,6.65-2.75c0.29,1.49,1.74,2.75,4.07,2.75l1.74-2.16
	C209.21,34.06,209.11,34.02,208.98,34.09 M218.48,18.68l0.58-1.97h-4.39v-4.42h-0.2c-1.84,2.16-3.71,4.16-5.85,6.1v0.29h2.46v12.47
	c0,3.39,2.2,5.17,4.91,5.17c0.68,0,1.23-0.1,2.04-0.26l0.94-2.36c0.03-0.1,0.1-0.42-0.19-0.26c-2.42,1.2-4.2,0.36-4.2-3.23V18.68
	H218.48z M224.74,11.9c0-1.16-1-2.17-2.16-2.17c-1.16,0-2.17,1-2.17,2.17c0,1.16,1,2.1,2.17,2.1
	C223.74,13.99,224.74,13.06,224.74,11.9 M219.74,35.83h6.27c0.13,0,0.13-0.22,0-0.22c-0.45,0-1.39-1.1-1.39-2.65V16.71h-4.88
	c-0.13,0-0.13,0.23,0,0.23c0.45,0,1.39,1.1,1.39,2.65v13.37c0,1.55-0.94,2.65-1.39,2.65C219.61,35.61,219.61,35.83,219.74,35.83
	 M242.83,26.3c0,4.91-2.52,7.85-5.94,7.85c-3.42,0-5.91-2.94-5.91-7.85c0-4.94,2.72-7.85,5.91-7.85
	C240.19,18.45,242.83,21.36,242.83,26.3 M246.94,26.27c0-5.49-4.52-10.05-10.05-10.05c-5.49,0-10.01,4.55-10.01,10.05
	c0,5.49,4.52,10.05,10.01,10.05C242.42,36.32,246.94,31.76,246.94,26.27 M261.83,35.83h6.27c0.13,0,0.13-0.22,0-0.22
	c-0.45,0-1.39-1.1-1.39-2.65v-9.14c0-5.01-2.78-7.59-6.98-7.59c-4.59,0-6.49,2.36-6.91,2.68v-2.2h-4.88c-0.13,0-0.13,0.23,0,0.23
	c0.45,0,1.39,1.1,1.39,2.65v13.37c0,1.55-0.94,2.65-1.39,2.65c-0.13,0-0.13,0.22,0,0.22h6.27c0.13,0,0.13-0.22,0-0.22
	c-0.45,0-1.39-1.1-1.39-2.65v-9.14c0-2.88,2.58-5.04,5.3-5.04c2.68,0,5.1,1.65,5.1,5.04v9.14c0,1.55-0.94,2.65-1.39,2.65
	C261.7,35.61,261.7,35.83,261.83,35.83 M283.02,28.98c0,2.75-3.01,5.14-5.88,5.14c-1.87,0-3.65-1.45-3.65-3.68
	c0-2.68,1.68-3.26,3.71-3.81c2.39-0.65,3.55-0.74,5.81-1.55V28.98z M287.26,36.32l1.74-2.16c0.1-0.1,0-0.13-0.13-0.07
	c-0.19,0.13-2.36,0.32-2.36-1.84V23.1c0-4.59-2.23-6.88-7.59-6.88c-3.84,0-6.1,0.71-6.65,0.84l-0.97,4.07
	c-0.03,0.13,0.07,0.23,0.16,0.1c0.45-0.49,2.52-2.88,6.82-2.88c2.52,0,4.62,0.68,4.62,2.84c0,2.71-3.78,2.81-6.72,3.33
	c-3.49,0.61-6.59,2.2-6.59,6.1c0,3.33,3.52,5.69,6.95,5.69c4.33,0,5.88-1.94,6.65-2.75C283.48,35.06,284.93,36.32,287.26,36.32
	 M289.71,35.83h6.27c0.13,0,0.13-0.22,0-0.22c-0.45,0-1.39-1.1-1.39-2.65V9.99h-4.88c-0.13,0-0.13,0.23,0,0.23
	c0.45,0,1.39,1.1,1.39,2.65v20.09c0,1.55-0.93,2.65-1.39,2.65C289.58,35.61,289.58,35.83,289.71,35.83 M322.4,28.14
	c0,5.33-4.65,5.43-8.62,5.43c-1,0-1.78-0.1-2.68-0.26V23.26c1.07-0.13,2.88-0.16,4.04-0.16C318.2,23.1,322.4,23.49,322.4,28.14
	 M313.94,20.84c-1.06,0-2.26-0.06-2.84-0.19V12.6c0.58-0.23,2.04-0.35,3.3-0.35c2.65,0,5.52,0.52,5.52,4.3
	C319.92,20.26,316.59,20.84,313.94,20.84 M326.25,28.11c0-5.04-4.65-6.62-6.75-6.78c2-0.61,4.39-2.97,4.39-5.85
	c0-5.62-7.2-5.49-7.88-5.49h-9.79c-0.13,0-0.13,0.23,0,0.23c0.45,0,1.39,1.1,1.39,2.65v20.09c0,1.55-0.94,2.65-1.39,2.65
	c-0.13,0-0.13,0.22,0,0.22h11.08C319.04,35.83,326.25,34.9,326.25,28.11 M341.3,28.98c0,2.75-3.01,5.14-5.88,5.14
	c-1.87,0-3.65-1.45-3.65-3.68c0-2.68,1.68-3.26,3.71-3.81c2.39-0.65,3.55-0.74,5.82-1.55V28.98z M345.53,36.32l1.74-2.16
	c0.1-0.1,0-0.13-0.13-0.07c-0.19,0.13-2.36,0.32-2.36-1.84V23.1c0-4.59-2.23-6.88-7.59-6.88c-3.84,0-6.1,0.71-6.65,0.84l-0.97,4.07
	c-0.03,0.13,0.06,0.23,0.16,0.1c0.45-0.49,2.52-2.88,6.82-2.88c2.52,0,4.62,0.68,4.62,2.84c0,2.71-3.78,2.81-6.72,3.33
	c-3.49,0.61-6.59,2.2-6.59,6.1c0,3.33,3.52,5.69,6.95,5.69c4.33,0,5.88-1.94,6.65-2.75C341.75,35.06,343.21,36.32,345.53,36.32
	 M361.88,35.83h6.27c0.13,0,0.13-0.22,0-0.22c-0.45,0-1.39-1.1-1.39-2.65v-9.14c0-5.01-2.78-7.59-6.98-7.59
	c-4.59,0-6.49,2.36-6.91,2.68v-2.2h-4.88c-0.13,0-0.13,0.23,0,0.23c0.45,0,1.39,1.1,1.39,2.65v13.37c0,1.55-0.94,2.65-1.39,2.65
	c-0.13,0-0.13,0.22,0,0.22h6.27c0.13,0,0.13-0.22,0-0.22c-0.45,0-1.39-1.1-1.39-2.65v-9.14c0-2.88,2.58-5.04,5.3-5.04
	c2.68,0,5.1,1.65,5.1,5.04v9.14c0,1.55-0.94,2.65-1.39,2.65C361.75,35.61,361.75,35.83,361.88,35.83 M374.7,32.96V9.99h-4.88
	c-0.13,0-0.13,0.23,0,0.23c0.45,0,1.39,1.1,1.39,2.65v20.09c0,1.55-0.94,2.65-1.39,2.65c-0.13,0-0.13,0.22,0,0.22h6.27
	c0.13,0,0.13-0.22,0-0.22C375.64,35.61,374.7,34.51,374.7,32.96 M386.01,32.25l-6.4-8.43l3.55-3.52c2.36-2.23,4.36-3.36,4.81-3.36
	c0.13,0,0.13-0.23,0-0.23h-6.07c-0.13,0-0.13,0.23,0,0.23c0.74,0,0.84,1.1-1.74,3.36l-4.52,3.97v0.23l5.91,7.75
	c1.87,2.36,1.26,3.36,0.81,3.36c-0.13,0-0.13,0.22,0,0.22h7.53c0.13,0,0.13-0.22,0-0.22C389.43,35.61,387.82,34.64,386.01,32.25"/>
<path class="st1" d="M25.52,9.6l1.66-4.26l1.64,4.26l4.34,0l-3.32,2.68l1.22,4.28l-3.88-2.53l-3.89,2.52l1.42-4.28L21.2,9.6
	L25.52,9.6z M22.6,11.84l-3.32,2.68l1.22,4.28l-3.88-2.53l-3.89,2.53l1.42-4.28l-3.51-2.68l4.32,0l1.66-4.26l1.64,4.26L22.6,11.84z
	 M11.97,4.28L8.65,6.96l1.22,4.28L5.99,8.71L2.1,11.24l1.42-4.28L0.01,4.28l4.32,0l1.66-4.26l1.64,4.26L11.97,4.28z M18.25,1.97
	l4.34,0l-3.32,2.68l1.22,4.28L16.61,6.4l-3.89,2.53l1.42-4.28l-3.51-2.68l4.32,0l0.76-1.96H0l0,14.12l4.31,0l1.66-4.26l1.64,4.26
	l4.34,0l-3.32,2.68l0.86,3c-1.77-0.87-4-2-5.99-3L0,14.14v1.91v16.72c0,0,2.25,1.63,3.42,2.46c0.38,0.27,0.96,0.75,1.4,0.41
	c0.96-0.81,3.1-3.72,4.25-6.02c0.51-1.02,1.18-2.26,1.69-3.66c0.21-0.46,0.49-1.44,0.64-1.97c0.15-0.55,0.28-1.12,0.37-1.62
	l1.41,0.76l7.68-2.03l6.35-1.41l2.66,1.88l4.42,0.94l11.46-7.12l1.43-4.59l15.37-3.42L67.72,0L17.5,0.01L18.25,1.97z"/>
<path class="st2" d="M35.28,28.28c-1.42-3.54-1.92-7.34-1.23-7.65c0.97-0.35,2.15,0.59,3.06,1.83c1.21,1.65,2.02,3.79,2.02,3.79
	s0.72,2.24,1.08,4.55c0.36,2.37,0.09,4.82-0.82,4.99C38.6,35.66,36.49,31.74,35.28,28.28"/>
<path class="st0" d="M34.33,21.93c-1.49,0.29-2.32-0.25-3.47-0.51c-1.54-0.28-1.47-0.54-2.27-0.68c-0.95-0.42-3.32-0.41-3.83-0.17
	c-1.59,0.75-2.73,0.36-4.1,0.82c-0.45,0.28-1.24,1.55-1.77,2.02c-0.55,0.27-1.38,0.88-1.77,1.13c-0.06,0.4,0.4,1.55,1.2,1.67
	c0.86,0.25,1.82,0.2,2.54-0.03c0.78-0.12,1.36-0.86,1.74-1.18c0.54,0.03,1.86-0.31,2.46-0.18c0.46,0.23,2.38,1.9,2.38,1.9l4.84,4.2
	l1.17,1.27c0,0,3.43-2.5,4.44-2.54C38.38,29,36.8,23.75,34.33,21.93"/>
<path class="st3" d="M34.33,21.93c-1.49,0.29-2.32-0.25-3.47-0.51c-1.54-0.28-1.47-0.54-2.27-0.68c-0.95-0.42-3.32-0.41-3.83-0.17
	c-1.59,0.75-2.73,0.36-4.1,0.82c-0.45,0.28-1.24,1.55-1.77,2.02c-0.55,0.27-1.38,0.88-1.77,1.13c-0.06,0.4,0.4,1.55,1.2,1.67
	c0.86,0.25,1.82,0.2,2.54-0.03c0.78-0.12,1.36-0.86,1.74-1.18c0.54,0.03,1.86-0.31,2.46-0.18c0.46,0.23,2.38,1.9,2.38,1.9l4.84,4.2
	l1.17,1.27c0,0,3.43-2.5,4.44-2.54C38.38,29,36.8,23.75,34.33,21.93z"/>
<path class="st0" d="M13.11,21.74c0.88,0.36,2.77,0.32,4.31-0.17c0.87-0.27,2.24-0.87,3.2-1.34c0.98-0.47,1.69-0.94,2.77-0.82
	c1.24,0.14,2.05-0.02,3-0.1c1.29-0.27,2.12,0.69,2.49,1.08c0.44,0.46,1.88,1.01,1.88,1.01s-3.52-0.63-4.18-0.66
	c-0.7-0.04-1.49,0.15-2.24,0.42c-0.81,0.28-1.98,0.4-2.78,0.45c-1.01-0.06-1.51,1.13-2.26,1.96c-0.38,0.42-1.02,0.6-1.53,1
	c-0.12,0.1-0.21,0.17-0.21,0.26c0.21,0.81,0.63,1.07,0.98,1.19c0.54,0.21,1.38,0.21,2.36-0.15c0.86-0.28,1.19-0.7,1.58-1.18
	c0.1-0.05,0.38,0,0.59,0c1.18-0.01,1.52-0.48,2.61,0.11c0.97,0.62,1.71,1.37,2.41,1.95c0.69,0.61,2.09,1.92,3.07,2.82
	c0.73,0.68,2.24,2.1,2.67,2.8c0.57,1.21-1.22,2.62-2.35,1.72c-0.61-0.47-4-3.58-4-3.58s2.88,2.61,3.39,3.08
	c0.79,0.85-0.7,2.92-2.29,1.96c-1.12-0.93-3.18-2.66-3.18-2.66s1.99,1.69,2.73,2.3c0.63,0.77-0.61,2.55-1.92,1.88
	c-1.2-0.87-2.74-2.06-2.74-2.06s1.5,1.14,2.29,1.74c0.78,0.85-0.39,2.15-1.83,1.45c-0.82-0.35-2-1.5-4-2.34
	c-1.26-0.33-4.52-2.24-6.65-4.3c-1.49-1.17-2.1-1.12-3.03-1.67C11.69,27.94,13.13,23.25,13.11,21.74"/>
<path class="st3" d="M13.11,21.74c0.88,0.36,2.77,0.32,4.31-0.17c0.87-0.27,2.24-0.87,3.2-1.34c0.98-0.47,1.69-0.94,2.77-0.82
	c1.24,0.14,2.05-0.02,3-0.1c1.29-0.27,2.12,0.69,2.49,1.08c0.44,0.46,1.88,1.01,1.88,1.01s-3.52-0.63-4.18-0.66
	c-0.7-0.04-1.49,0.15-2.24,0.42c-0.81,0.28-1.98,0.4-2.78,0.45c-1.01-0.06-1.51,1.13-2.26,1.96c-0.38,0.42-1.02,0.6-1.53,1
	c-0.12,0.1-0.21,0.17-0.21,0.26c0.21,0.81,0.63,1.07,0.98,1.19c0.54,0.21,1.38,0.21,2.36-0.15c0.86-0.28,1.19-0.7,1.58-1.18
	c0.1-0.05,0.38,0,0.59,0c1.18-0.01,1.52-0.48,2.61,0.11c0.97,0.62,1.71,1.37,2.41,1.95c0.69,0.61,2.09,1.92,3.07,2.82
	c0.73,0.68,2.24,2.1,2.67,2.8c0.57,1.21-1.22,2.62-2.35,1.72c-0.61-0.47-4-3.58-4-3.58s2.88,2.61,3.39,3.08
	c0.79,0.85-0.7,2.92-2.29,1.96c-1.12-0.93-3.18-2.66-3.18-2.66s1.99,1.69,2.73,2.3c0.63,0.77-0.61,2.55-1.92,1.88
	c-1.2-0.87-2.74-2.06-2.74-2.06s1.5,1.14,2.29,1.74c0.78,0.85-0.39,2.15-1.83,1.45c-0.82-0.35-2-1.5-4-2.34
	c-1.26-0.33-4.52-2.24-6.65-4.3c-1.49-1.17-2.1-1.12-3.03-1.67C11.69,27.94,13.13,23.25,13.11,21.74z"/>
<path class="st0" d="M9.99,26.64c1.04-2.35,1.52-5.06,1.57-5.82c0.26,0.11,1.43,0.65,1.72,0.77c0.1,1.04-0.57,3.86-1.48,6
	c-0.84,1.92-1.9,3.96-2.52,4.74c-0.15,0.19-0.38,0.15-0.48,0.12c-0.4-0.21-1.29-0.73-1.59-0.88C7.79,30.99,8.95,29.06,9.99,26.64"/>
<path class="st3" d="M9.99,26.64c1.04-2.35,1.52-5.06,1.57-5.82c0.26,0.11,1.43,0.65,1.72,0.77c0.1,1.04-0.57,3.86-1.48,6
	c-0.84,1.92-1.9,3.96-2.52,4.74c-0.15,0.19-0.38,0.15-0.48,0.12c-0.4-0.21-1.29-0.73-1.59-0.88C7.79,30.99,8.95,29.06,9.99,26.64z"
	/>
<path class="st0" d="M33.82,21.96c0.71,0.16,2.3,2.48,3.31,5.08c0.78,2.31,1.14,4.08,1.29,5.09c0.06,0.27,0.04,0.75,0.33,0.67
	c0.59-0.18,1.19-0.58,1.55-0.73c1.18-1.13-2.3-11.22-4.36-11.07C35.55,21.21,34.15,21.79,33.82,21.96 M27.63,26.34
	c0.87,0.79,1.51,1.38,2.05,1.77c0.99,0.56,2.65,0.52,3.41-0.32"/>
<path class="st3" d="M33.82,21.96c0.71,0.16,2.3,2.48,3.31,5.08c0.78,2.31,1.14,4.08,1.29,5.09c0.06,0.27,0.04,0.75,0.33,0.67
	c0.59-0.18,1.19-0.58,1.55-0.73c1.18-1.13-2.3-11.22-4.36-11.07C35.55,21.21,34.15,21.79,33.82,21.96z M27.63,26.34
	c0.87,0.79,1.51,1.38,2.05,1.77c0.99,0.56,2.65,0.52,3.41-0.32"/>
<path class="st0" d="M16.38,32.25c0.41-0.8-1.52-2.06-2.05-1.47c-0.59,0.54-1.53,1.93-0.44,2.72
	C15.14,34.51,15.99,32.74,16.38,32.25 M18.5,33.81c0.58-0.81-1.35-2.36-2.16-1.37c-0.42,0.53-1.76,1.63-0.43,2.61
	c0.57,0.38,1.02,0.43,1.39,0.23C17.76,34.87,18.2,34.25,18.5,33.81 M20.31,35.77c0.13-0.18,0.46-0.5,0.51-0.85
	c0.15-0.7-1.5-1.91-2.22-1.11c-0.5,0.68-1.75,1.82-0.48,2.67C19.26,37.25,19.74,36.53,20.31,35.77 M22.6,36.1
	c-0.08-0.5-1.06-1.43-1.78-0.93c-0.56,0.62-0.79,1-1,1.47c-0.11,0.4-0.01,1.01,0.96,1.09c0.41,0.05,0.83-0.09,1.29-0.47
	C22.56,36.83,22.72,36.45,22.6,36.1"/>
<path class="st3" d="M16.38,32.25c0.41-0.8-1.52-2.06-2.05-1.47c-0.59,0.54-1.53,1.93-0.44,2.72
	C15.14,34.51,15.99,32.74,16.38,32.25z M18.5,33.81c0.58-0.81-1.35-2.36-2.16-1.37c-0.42,0.53-1.76,1.63-0.43,2.61
	c0.57,0.38,1.02,0.43,1.39,0.23C17.76,34.87,18.2,34.25,18.5,33.81z M20.31,35.77c0.13-0.18,0.46-0.5,0.51-0.85
	c0.15-0.7-1.5-1.91-2.22-1.11c-0.5,0.68-1.75,1.82-0.48,2.67C19.26,37.25,19.74,36.53,20.31,35.77z M22.6,36.1
	c-0.08-0.5-1.06-1.43-1.78-0.93c-0.56,0.62-0.79,1-1,1.47c-0.11,0.4-0.01,1.01,0.96,1.09c0.41,0.05,0.83-0.09,1.29-0.47
	C22.56,36.83,22.72,36.45,22.6,36.1z"/>
<path class="st2" d="M62.63,12.89c0,1.37-0.36,1.47-1.72,1.46c-1.04,0-5.86,0-9.77,0c-2.81,0.06-4.8,0.76-5.32,3.21l0.01-0.9
	c0.07-0.93,0.23-1.45,0.87-2.13c0.34-0.33,1.17-1.41,4.47-1.44c3.1,0,5.54,0,8.74,0c1.7,0,2.66-0.01,2.73-1.37
	C62.63,12.22,62.63,12.67,62.63,12.89 M45.93,25.15c0.09-1.27,0.04-2.49,0.92-3.47c0.19-0.19,0.42-0.43,0.84-0.7
	c0.57-0.37,1.54-0.75,3.45-0.72c3.1,0,5.51,0,8.7,0c1.49,0,2.53,0.18,2.75-1.01c0,0.33,0.01,0.6,0.01,0.77
	c0,1.37-0.38,1.53-1.76,1.5c-1.03,0-5.85,0-9.77,0C48.13,21.54,46.38,22.52,45.93,25.15 M97.71,0c0,0-26.89,0-29.99,0
	c-3.58,0-5.08,1.13-5.08,3.98c0,0.76,0.01,1.38,0.01,1.69c0,1.37-0.38,1.53-1.76,1.5c-1.03,0-5.85,0-9.77,0
	c-3.34,0-5.65,1.52-5.5,4.78c0,0.73,0,2,0.01,3.35c-1.43,0.67-10.49,4.89-11.57,5.33c4.44,1.26,7,12.07,5.4,15.13
	c0.92-0.46,6.21-3.04,6.21-3.04v-0.02c0.54-0.27-0.14-2.47,1.07-3.82c0.34-0.33,1.07-1.41,4.37-1.44c3.1,0,5.54,0,8.74,0
	c1.78,0,2.78,0.03,2.76-1.53c0-0.72-0.02-1.15-0.02-2.45c0.13-3.19,3.44-3.17,5.28-3.17c1.57,0,8.64-0.01,8.64-0.01l3.73-5.91
	c0,0-9.48-0.01-12.58,0.01c-3.26,0-4.78,0.94-5.03,3.25c0-0.36,0-0.78,0-1.39c0.13-3.19,3.34-3.15,5.17-3.15
	c1.57,0,17.33-0.01,17.33-0.01l3.8-5.94c0,0-18.1,0.02-21.24,0.02c-3.42,0-4.92,1.04-5.05,3.63c0-0.41-0.01-0.88-0.01-1.68
	c0.13-3.19,3.44-3.17,5.28-3.17c1.57,0,26,0,26,0S97,1.16,97.71,0"/>
<polygon class="st1" points="81.39,14.37 83,14.37 83,14.61 82.33,14.61 82.33,16.35 82.06,16.35 82.06,14.61 81.39,14.61 "/>
<path class="st1" d="M84.89,16.35v-1.17c0-0.06,0.01-0.31,0.01-0.5h-0.01l-0.56,1.67h-0.27l-0.56-1.67H83.5
	c0,0.18,0.01,0.43,0.01,0.49v1.17h-0.26v-1.99h0.38l0.57,1.68h0.01l0.56-1.68h0.38v1.99H84.89z"/>
</svg>
